<?xml version="1.0" standalone="no"?>
<!DOCTYPE svg PUBLIC "-//W3C//DTD SVG 20010904//EN"
 "http://www.w3.org/TR/2001/REC-SVG-20010904/DTD/svg10.dtd">
<svg version="1.0" xmlns="http://www.w3.org/2000/svg"
 width="1024.000000pt" height="1024.000000pt" viewBox="0 0 1024.000000 1024.000000"
 preserveAspectRatio="xMidYMid meet">
<metadata>
Created by potrace 1.14, written by Peter Selinger 2001-2017
</metadata>
<g transform="translate(0.000000,1024.000000) scale(0.100000,-0.100000)"
fill="#000000" stroke="none">
<path d="M0 5120 l0 -5120 5120 0 5120 0 0 5120 0 5120 -5120 0 -5120 0 0
-5120z m5065 4300 c12 -13 25 -18 40 -14 21 5 23 3 22 -45 -1 -53 -6 -58 -36
-41 -14 7 -23 5 -36 -10 -24 -26 -48 -15 -41 21 4 21 0 31 -17 43 l-22 15 23
0 c14 1 22 7 22 19 0 36 19 41 45 12z m-1155 -59 c7 -19 25 -35 48 -44 l37
-15 -28 -11 c-16 -6 -32 -11 -36 -11 -5 0 -14 -14 -21 -30 -15 -35 -32 -35
-40 0 -4 17 -16 27 -38 34 -37 10 -37 28 -1 36 15 3 30 18 38 38 18 40 25 40
41 3z m598 -27 c4 -27 -26 -40 -46 -20 -13 13 -13 18 -2 31 18 21 44 15 48
-11z m1617 -9 c0 -23 -5 -31 -22 -33 -26 -4 -41 31 -22 54 20 24 44 13 44 -21z
m-2717 -4 c19 -12 11 -45 -12 -49 -24 -5 -37 17 -25 40 11 20 18 22 37 9z
m2227 -21 c4 -12 1 -28 -6 -36 -16 -20 -53 -14 -57 9 -8 41 51 66 63 27z
m-891 -37 c3 -7 -1 -13 -9 -13 -8 0 -19 -8 -24 -17 -10 -17 -12 -17 -25 0 -8
11 -12 25 -9 33 6 18 60 15 67 -3z m3290 -52 c85 -59 116 -184 68 -276 -45
-88 -128 -141 -334 -216 -79 -28 -157 -59 -173 -68 -17 -10 -38 -15 -47 -12
-42 15 26 54 225 130 177 67 228 97 271 158 79 113 8 273 -121 273 -105 0
-164 -77 -144 -186 10 -53 7 -66 -13 -58 -36 14 -48 121 -20 180 19 39 86 101
118 108 53 11 125 -3 170 -33z m-1694 -55 c0 -14 -4 -27 -9 -30 -18 -11 -41 6
-41 30 0 19 5 24 25 24 20 0 25 -5 25 -24z m397 -1 c29 -20 63 -73 63 -100 0
-17 -2 -17 -10 -5 -5 8 -10 10 -10 4 0 -25 -53 -63 -95 -70 -36 -5 -51 -2 -80
16 -19 12 -39 29 -45 38 -8 15 -11 15 -20 2 -17 -26 -12 28 7 67 31 65 126 89
190 48z m-3619 -13 c4 -26 -22 -40 -43 -22 -11 9 -12 17 -4 32 13 25 43 19 47
-10z m327 -31 c0 -34 -30 -51 -51 -29 -25 24 -10 60 24 56 21 -2 27 -8 27 -27z
m-887 -14 c4 -22 -27 -35 -38 -16 -10 15 7 42 24 36 6 -2 12 -11 14 -20z m292
-42 c5 -14 21 -30 35 -35 33 -12 32 -29 -3 -41 -15 -5 -32 -19 -37 -31 -13
-27 -29 -25 -35 4 -4 15 -18 27 -40 35 l-35 11 38 16 c23 10 37 23 37 34 0 39
26 43 40 7z m2682 -9 c485 -72 969 -257 1388 -530 195 -127 437 -326 423 -349
-3 -5 -2 -7 4 -4 15 9 156 -139 147 -154 -5 -9 -2 -10 9 -6 9 3 17 1 19 -5 2
-5 20 -10 41 -10 20 0 37 -4 37 -9 0 -5 7 -9 15 -9 8 0 15 -5 15 -11 0 -6 -6
-9 -13 -6 -6 2 -18 -2 -25 -9 -13 -14 -6 -18 23 -15 6 0 46 -6 90 -15 44 -9
94 -17 112 -18 61 -2 18 -15 -62 -18 -44 -2 69 -7 250 -11 360 -9 392 -14 458
-68 53 -44 77 -96 77 -166 -1 -32 -7 -69 -15 -83 -17 -29 -18 -26 -15 61 1 44
-4 77 -14 96 -23 46 -90 101 -133 109 -58 11 -132 9 -145 -4 -9 -9 -82 -12
-264 -12 -242 0 -252 -1 -257 -20 -3 -10 -2 -18 3 -17 24 7 315 -433 306 -466
-2 -9 -1 -15 3 -13 7 4 71 -125 75 -150 1 -7 7 -18 13 -25 17 -23 21 -43 10
-64 -8 -16 -7 -18 4 -8 10 10 16 5 30 -27 10 -22 16 -47 13 -55 -4 -8 -2 -15
4 -15 5 0 13 -7 16 -16 3 -8 2 -12 -3 -9 -5 3 -12 1 -16 -5 -3 -5 -17 -10 -30
-10 -13 0 -27 -5 -31 -11 -5 -8 8 -10 42 -7 l49 4 -1 -54 c-1 -34 2 -49 7 -41
7 11 9 9 9 -6 0 -16 2 -17 9 -6 7 11 12 3 20 -30 7 -24 19 -60 27 -79 9 -19
22 -65 29 -102 11 -62 11 -68 -4 -68 -9 0 -34 14 -56 31 -22 16 -40 26 -41 22
-18 -92 -29 -123 -47 -129 -10 -3 -24 -1 -29 4 -12 12 -82 -15 -130 -49 -16
-12 -31 -19 -33 -17 -2 2 13 37 33 78 41 83 76 114 142 125 47 8 53 30 13 46
-36 14 -91 -2 -123 -36 -12 -13 -28 -22 -34 -18 -6 3 -8 3 -4 -1 6 -7 -85
-223 -101 -239 -4 -4 -14 47 -21 114 l-13 122 31 26 c17 14 34 38 38 54 4 19
13 27 28 27 22 0 79 38 61 41 -5 1 3 4 19 8 16 3 32 13 34 21 5 13 3 13 -11 1
-23 -18 -21 -9 8 49 14 27 25 55 24 62 0 7 -4 4 -9 -7 -9 -22 -9 -22 -30 47
-6 21 -20 40 -31 43 -23 8 -26 50 -4 59 24 9 18 35 -16 65 -19 18 -27 31 -20
35 19 12 12 24 -16 31 -15 3 -31 12 -35 18 -5 7 -8 3 -8 -12 0 -18 4 -22 19
-18 10 2 25 1 32 -4 10 -6 7 -9 -11 -9 -20 0 -22 -2 -10 -10 11 -7 6 -10 -20
-9 -29 0 -31 2 -15 9 11 5 15 9 9 9 -6 1 -16 16 -22 34 -6 20 -10 25 -11 13
-1 -19 -2 -19 -14 -2 -12 17 -21 18 -73 9 -37 -5 -58 -13 -57 -21 2 -7 -6 -12
-18 -12 -11 0 -18 4 -14 9 3 5 1 12 -5 16 -9 5 -15 -16 -11 -38 1 -5 -4 -7
-11 -4 -7 2 -12 9 -11 15 1 5 -7 8 -19 4 -14 -3 -19 -1 -14 6 4 7 1 12 -8 12
-23 0 -20 -17 4 -25 11 -3 20 -10 20 -15 0 -10 -28 -21 -33 -12 -5 10 0 -9 8
-30 4 -11 3 -18 -5 -18 -6 0 -8 5 -4 12 4 6 3 8 -4 4 -6 -3 -14 -31 -18 -62
-6 -52 -8 -56 -30 -51 -13 2 -24 0 -24 -4 0 -5 -3 -8 -7 -7 -13 2 -63 -21 -63
-30 0 -4 -15 -9 -34 -10 -30 -2 -34 0 -29 18 4 15 0 20 -16 20 -16 0 -21 -6
-21 -25 0 -25 3 -26 48 -24 63 3 85 -10 100 -65 8 -25 19 -47 25 -49 7 -3 3
-8 -8 -13 -11 -4 -31 -16 -44 -26 -13 -10 -28 -15 -34 -11 -6 3 -7 1 -3 -5 8
-13 -61 -108 -75 -105 -5 2 -8 -2 -6 -8 1 -6 -6 -15 -15 -20 -10 -5 -26 -13
-35 -18 -11 -5 -17 -19 -16 -35 1 -18 -2 -24 -10 -20 -7 4 -9 3 -4 -1 4 -5 29
-10 55 -12 30 -2 42 0 33 5 -10 7 -2 22 36 63 26 30 58 68 70 85 12 16 38 39
57 49 l35 19 28 -26 c26 -25 105 -52 117 -40 7 6 51 -90 60 -129 6 -25 5 -26
-49 -21 -30 2 -74 1 -98 -2 l-45 -7 2 -82 c3 -102 28 -159 103 -227 l52 -48
-37 -7 c-20 -4 -42 -11 -49 -17 -7 -5 -18 -6 -24 -2 -7 4 -9 3 -6 -3 4 -6 -5
-19 -19 -29 -14 -11 -39 -37 -54 -60 l-29 -41 -157 -7 c-86 -3 -161 -9 -166
-12 -14 -9 13 -36 29 -30 8 3 11 1 8 -4 -4 -6 3 -22 14 -36 12 -15 21 -33 21
-40 0 -8 6 -14 13 -14 6 0 12 11 12 25 0 14 -3 25 -7 25 -3 0 -4 10 -2 23 2
12 2 16 -2 9 -3 -6 -10 -10 -15 -6 -16 10 -9 20 16 22 16 1 25 -3 25 -13 0 -8
5 -15 11 -15 6 0 9 -6 6 -14 -4 -10 0 -12 14 -9 13 4 19 0 19 -11 0 -9 8 -16
18 -17 9 0 30 -2 45 -3 15 -1 33 1 39 5 22 14 38 -19 38 -78 0 -69 -9 -86 -41
-81 -16 2 -32 17 -47 46 -35 62 -46 54 -38 -25 14 -132 17 -123 -43 -165 -47
-33 -56 -36 -64 -23 -14 25 10 80 54 122 21 21 39 41 39 46 0 13 -70 8 -71 -5
0 -10 -2 -10 -6 0 -3 9 -41 12 -141 12 -126 0 -135 -1 -109 -15 23 -11 79 -20
165 -24 7 -1 11 -5 8 -10 -4 -5 -2 -20 3 -32 l8 -23 14 22 c8 12 18 22 22 22
5 0 -3 -14 -17 -31 -27 -32 -30 -47 -26 -112 2 -36 -3 -43 -61 -97 -35 -32
-66 -57 -70 -54 -4 2 -10 24 -13 48 -9 56 -39 97 -57 78 -11 -10 -16 -104 -8
-149 5 -31 -2 -55 -17 -49 -8 3 -13 2 -9 -3 3 -5 -8 -19 -24 -30 -19 -14 -32
-18 -36 -11 -4 6 -11 8 -16 5 -5 -4 -9 -1 -9 4 0 6 5 11 10 11 6 0 10 7 10 15
0 13 4 14 21 5 20 -11 20 -11 5 19 -10 18 -14 43 -11 63 3 18 -5 1 -19 -38
-13 -40 -22 -85 -20 -100 2 -16 1 -21 -2 -11 -4 12 -14 0 -39 -45 -18 -34 -37
-63 -41 -65 -5 -1 -30 30 -55 70 -61 95 -60 93 -41 94 9 1 28 4 42 8 19 5 22
4 10 -4 -8 -6 -10 -11 -4 -11 7 0 19 12 29 26 10 15 22 23 31 20 8 -3 14 -1
14 4 0 5 -9 12 -21 15 -21 7 -21 7 -1 21 11 8 28 11 37 8 10 -4 15 -2 13 7 -2
8 3 13 10 12 16 -4 15 5 -3 23 -8 9 -19 12 -25 9 -5 -3 -10 -1 -10 5 0 8 9 10
25 6 20 -5 23 -3 18 11 -4 11 -3 14 5 9 7 -4 12 -14 12 -22 0 -8 4 -14 8 -14
5 0 7 14 4 30 -3 25 -1 29 12 24 12 -5 16 0 17 22 l1 29 7 -30 c6 -26 9 -19
20 45 8 41 17 91 21 110 l8 35 2 -30 c1 -26 3 -27 9 -10 5 11 7 25 5 30 -1 6
-5 22 -8 38 l-6 27 -305 0 -305 0 -16 26 c-20 30 -13 38 51 55 49 13 97 55
125 109 l21 42 -152 -3 -153 -4 -34 45 c-42 56 -57 60 -71 20 -6 -17 -15 -29
-21 -25 -6 4 -7 -1 -3 -11 5 -14 3 -16 -11 -11 -9 4 -15 3 -11 -2 9 -16 -46
-21 -180 -16 l-130 4 -38 53 c-75 104 -108 159 -102 168 4 6 1 9 -6 8 -6 -2
-58 65 -115 147 -103 150 -334 490 -406 598 -21 31 -42 57 -46 57 -4 0 -14
-12 -23 -28 -9 -15 -32 -49 -52 -77 -19 -27 -92 -137 -162 -244 -70 -107 -132
-200 -137 -205 -4 -6 -51 -73 -104 -149 -57 -82 -100 -135 -106 -131 -7 4 -8
2 -4 -5 8 -12 -71 -140 -106 -175 -23 -22 -37 -14 -14 9 21 22 20 32 -5 38
-16 4 -18 3 -9 -8 8 -10 8 -15 -1 -21 -7 -4 -19 1 -29 14 -11 13 -21 17 -27
11 -16 -16 -63 7 -63 31 0 12 -4 29 -10 39 -8 16 -5 19 15 19 14 0 23 -3 21
-7 -2 -3 9 -6 24 -6 15 0 26 3 23 8 -2 4 -10 7 -18 7 -7 0 -17 9 -20 20 -6 19
-35 29 -35 12 0 -4 -13 -13 -30 -20 -35 -16 -38 -32 -10 -50 14 -8 20 -23 20
-48 0 -27 3 -35 14 -31 10 4 13 1 9 -9 -4 -12 0 -14 23 -9 24 4 25 4 8 -4 -11
-5 -36 -6 -55 -2 -28 6 -35 12 -37 36 -2 17 -8 34 -13 39 -5 6 -9 18 -9 28 0
15 -3 16 -25 6 -32 -14 -34 -48 -2 -48 17 0 22 -6 23 -26 2 -23 -1 -25 -25
-20 l-26 6 24 -20 c23 -20 23 -20 2 -20 -12 0 -21 5 -21 10 0 6 -7 10 -16 10
-10 0 -14 6 -10 15 3 8 1 15 -3 15 -5 0 -11 -5 -13 -10 -2 -6 -20 12 -41 40
-20 27 -41 50 -46 50 -5 0 -23 -24 -40 -54 -17 -30 -37 -58 -45 -63 -8 -4 -74
-6 -148 -3 -73 3 -135 4 -138 2 -10 -7 45 -94 76 -122 19 -16 52 -34 74 -40
45 -12 48 -19 23 -48 -17 -19 -34 -20 -500 -27 l-483 -6 0 40 c0 23 -4 41 -9
41 -5 0 -24 -25 -42 -57 l-32 -56 -24 27 c-18 22 -23 39 -23 87 0 40 4 59 13
60 6 1 19 2 27 3 8 1 23 -2 33 -7 11 -5 17 -3 18 5 0 10 2 10 6 1 3 -8 21 -13
46 -12 40 1 40 2 12 9 -28 7 -29 8 -5 9 15 0 31 6 37 12 12 12 33 4 33 -11 0
-5 -8 -11 -17 -13 -16 -4 -16 -5 -1 -6 23 -1 31 15 18 39 -6 12 -7 26 -2 36 8
14 10 13 23 -2 12 -16 12 -17 -3 -11 -19 7 -25 -8 -8 -18 6 -3 22 8 37 26 15
17 40 40 56 50 29 17 25 17 -152 14 l-182 -4 -17 28 c-44 72 -125 141 -164
141 -28 0 -22 11 48 80 36 36 70 72 74 81 15 27 31 182 20 193 -5 5 -55 10
-110 10 l-101 1 6 35 c4 19 18 53 31 76 20 34 33 44 69 53 43 11 66 27 84 59
8 14 14 13 52 -13 38 -27 159 -175 159 -195 0 -5 -8 -10 -17 -13 -10 -2 -2 -4
17 -5 83 -1 92 28 28 93 -24 23 -65 68 -92 99 -27 31 -62 64 -78 74 -19 11
-26 22 -22 32 4 8 11 34 17 58 6 23 14 42 19 42 4 0 8 8 8 18 0 13 -2 14 -9 3
-7 -11 -11 -10 -20 7 -7 12 -26 24 -46 28 -24 4 -35 12 -35 24 0 10 -7 33 -15
53 -8 19 -11 38 -7 42 4 3 0 5 -8 3 -8 -1 -14 3 -12 10 1 6 -1 11 -5 10 -16
-5 -114 46 -110 56 3 7 -13 11 -42 10 -79 -1 -91 -3 -91 -20 0 -8 5 -12 10 -9
6 3 10 1 10 -5 0 -6 -6 -10 -12 -9 -38 5 -68 -2 -68 -16 0 -8 -7 -15 -15 -15
-8 0 -21 -12 -29 -27 l-15 -28 4 35 c5 34 5 34 -5 6 -6 -19 -6 -36 1 -48 7
-12 6 -18 -1 -18 -7 0 -10 -13 -7 -35 3 -25 0 -39 -14 -51 -11 -9 -19 -12 -19
-6 0 6 6 15 13 19 10 6 9 12 -6 26 -18 18 -18 18 -15 -4 2 -12 -2 -24 -9 -26
-7 -3 -9 3 -6 17 4 13 0 26 -8 31 -11 7 -10 9 4 9 22 0 21 6 -2 38 -10 15 -21
43 -25 62 -6 30 -5 32 7 16 12 -16 16 -17 35 -5 27 17 36 39 17 39 -8 0 -15
-6 -15 -12 0 -7 -7 -2 -16 10 -13 20 -14 28 -3 55 21 55 63 117 76 113 7 -3
15 0 19 6 4 6 3 8 -2 5 -6 -3 -15 -2 -22 2 -8 5 6 37 49 107 33 54 68 108 78
119 10 11 37 49 61 85 54 82 80 111 93 103 6 -3 7 -1 3 5 -4 7 -2 17 3 24 6 7
32 40 57 73 26 33 52 63 58 67 6 4 143 8 304 8 283 0 293 1 287 19 -3 10 -9
39 -13 62 l-8 44 -222 3 c-122 1 -222 6 -222 11 0 5 14 21 31 35 32 27 47 29
403 31 l60 0 2 -73 c2 -91 36 -164 100 -221 114 -101 297 -96 403 10 97 97
106 272 17 358 l-33 32 -402 0 c-220 1 -401 5 -401 9 0 5 17 22 38 37 20 15
43 33 50 40 79 75 351 270 467 335 495 279 896 402 1475 452 126 11 461 -4
622 -28z m-1802 -20 c0 -29 -28 -42 -48 -22 -20 20 -8 46 23 46 20 0 25 -5 25
-24z m3809 -10 c15 -18 3 -46 -20 -46 -22 0 -34 22 -25 45 7 19 30 19 45 1z
m-4095 -52 c23 -9 20 -51 -4 -59 -27 -8 -40 1 -40 29 0 34 12 42 44 30z m3829
-96 c16 -21 18 -30 9 -41 -10 -12 -21 -12 -64 -2 -58 13 -69 27 -42 56 25 28
71 22 97 -13z m-4063 -24 c10 -11 11 -23 4 -42 -17 -48 -84 -38 -84 12 0 43
53 63 80 30z m3788 -76 c16 -16 15 -28 -3 -28 -8 0 -15 -6 -16 -12 0 -10 -2
-10 -6 0 -2 6 -9 10 -14 6 -13 -8 -11 20 3 34 7 7 15 12 18 12 3 0 11 -5 18
-12z m1240 -65 c34 -30 37 -59 8 -88 -45 -44 -106 -21 -106 40 0 56 57 83 98
48z m-6661 1 c-3 -3 -12 -4 -19 -1 -8 3 -5 6 6 6 11 1 17 -2 13 -5z m1255 -96
c2 -13 13 -27 26 -33 27 -12 28 -22 2 -30 -11 -3 -23 -17 -26 -31 -8 -32 -24
-31 -24 1 0 20 -6 27 -30 32 -37 7 -39 20 -5 29 15 4 28 16 31 30 8 30 22 31
26 2z m-1162 -128 c0 -5 -5 -10 -11 -10 -5 0 -7 5 -4 10 3 6 8 10 11 10 2 0 4
-4 4 -10z m7140 -157 c0 -16 -52 -33 -69 -23 -13 8 -11 9 9 10 14 0 32 5 40
10 18 12 20 12 20 3z m-6767 -48 c-4 -14 -99 -18 -233 -9 -85 6 -106 10 -80
15 54 10 315 6 313 -6z m6477 8 c188 -10 116 -21 -137 -22 -192 -1 -223 1
-223 14 0 12 20 15 118 15 66 0 174 -3 242 -7z m177 -9 c-3 -3 -12 -4 -19 -1
-8 3 -5 6 6 6 11 1 17 -2 13 -5z m-6797 -194 c0 -18 -7 -20 -79 -20 -230 0
-406 -137 -472 -368 -10 -37 -20 -83 -20 -102 -1 -23 -3 -28 -6 -12 -2 12 -11
22 -19 22 -11 0 -13 9 -8 43 32 212 182 389 375 441 30 8 93 15 142 15 81 1
87 0 87 -19z m6589 5 c89 -21 171 -68 237 -134 102 -103 173 -293 140 -372
l-14 -34 -6 40 c-21 135 -69 243 -143 325 -89 99 -210 150 -355 150 -71 0 -78
2 -78 20 0 18 7 20 78 20 42 0 106 -7 141 -15z m656 -130 c0 -23 -5 -31 -21
-33 -27 -4 -47 21 -39 48 5 16 14 20 33 18 23 -2 27 -8 27 -33z m-8039 -2 c1
-26 -21 -50 -31 -33 -3 5 0 10 7 10 8 0 6 5 -4 11 -26 15 -23 41 5 37 15 -2
22 -10 23 -25z m860 -108 c51 -21 95 -55 88 -67 -4 -7 -9 -6 -14 2 -4 6 -9 11
-11 10 -2 0 -21 6 -43 15 -127 53 -253 15 -309 -95 -23 -44 -27 -64 -24 -100
l5 -45 -12 38 c-6 21 -15 34 -20 30 -12 -13 4 48 26 95 23 48 79 100 129 118
47 17 143 17 185 -1z m-83 -409 c50 -20 121 -115 101 -135 -3 -3 -24 -6 -47
-7 -87 -2 -86 -2 -110 -51 -12 -25 -27 -48 -33 -50 -6 -2 -34 19 -63 47 -43
43 -57 50 -90 50 -61 0 -131 12 -131 22 0 20 68 78 92 78 12 0 37 9 55 20 66
40 166 51 226 26z m6631 -24 c56 -26 126 -82 126 -102 0 -4 -31 -10 -69 -12
-68 -3 -71 -5 -125 -56 -30 -29 -62 -52 -71 -52 -10 0 -24 19 -36 46 -23 51
-47 64 -115 64 -42 0 -45 1 -39 23 15 46 47 86 88 107 58 30 154 22 241 -18z
m-6241 -329 c-7 -2 -19 -2 -25 0 -7 3 -2 5 12 5 14 0 19 -2 13 -5z m153 -23
c65 -37 94 -73 94 -116 0 -33 -17 -55 -29 -37 -11 16 -82 53 -91 48 -14 -8 0
-35 17 -35 13 0 13 -3 3 -15 -15 -18 -34 -6 -56 36 -14 28 -20 130 -7 142 10
10 14 9 69 -23z m5388 14 c17 -45 -4 -144 -31 -144 -10 0 -13 6 -9 16 3 9 2
12 -5 8 -6 -3 -9 -15 -6 -25 3 -11 1 -17 -4 -13 -5 3 -9 12 -9 20 0 21 -15 17
-36 -11 -23 -30 -49 -32 -64 -5 -24 45 13 105 90 146 54 28 66 29 74 8z
m-5773 -57 c-10 -9 -11 -8 -5 6 3 10 9 15 12 12 3 -3 0 -11 -7 -18z m-339 -90
c123 -181 153 -382 75 -503 -12 -19 -26 -34 -30 -34 -5 0 -5 5 -1 12 4 7 3 8
-4 4 -7 -4 -12 -19 -13 -34 -1 -15 -14 24 -29 86 -15 62 -31 116 -35 120 -8 7
2 -167 11 -203 4 -16 3 -17 -5 -5 -10 13 -11 13 -11 0 0 -9 -19 6 -44 33 -122
135 -127 372 -13 585 18 33 19 33 39 15 11 -10 38 -44 60 -76z m594 85 c14 -9
54 -82 54 -98 0 -18 -48 -10 -78 13 -19 14 -28 31 -30 56 -3 33 -1 37 20 37
13 0 28 -4 34 -8z m5637 -11 c8 -31 -27 -78 -68 -91 -20 -7 -39 -9 -42 -6 -6
6 23 84 39 104 17 20 65 15 71 -7z m666 -80 c56 -144 64 -279 25 -400 -17 -52
-54 -100 -101 -130 -12 -8 -20 -18 -17 -22 2 -4 0 -10 -5 -14 -7 -4 -9 36 -5
112 3 75 1 111 -5 98 -9 -21 -33 -147 -32 -177 0 -31 -29 -29 -49 5 -29 46
-60 152 -60 204 0 114 67 275 160 382 43 49 49 45 89 -58z m472 72 c17 -15 38
-42 45 -60 18 -41 18 -64 1 -41 -12 15 -14 14 -25 -11 -24 -54 -102 -77 -160
-47 -49 26 -75 61 -67 94 6 29 46 75 75 85 42 15 99 6 131 -20z m-6886 -33 c3
-5 1 -10 -4 -10 -6 0 -11 5 -11 10 0 6 2 10 4 10 3 0 8 -4 11 -10z m120 -82
c22 -6 46 -12 54 -12 8 -1 16 -7 19 -15 4 -11 -2 -13 -27 -8 -17 4 -31 3 -31
-2 0 -15 -45 -21 -78 -12 -26 8 -30 7 -24 -7 5 -15 4 -15 -11 -3 -21 17 -22
35 -1 55 18 19 45 20 99 4z m5655 -3 c7 -8 10 -22 6 -30 -3 -8 0 -15 6 -15 8
0 8 -4 -1 -12 -11 -11 -14 -10 -18 1 -5 11 -7 11 -14 0 -7 -11 -9 -11 -9 2 0
19 -20 29 -53 29 -21 -1 -21 -1 3 -16 l25 -15 -32 6 c-91 15 -96 16 -82 30 33
32 148 45 169 20z m-5864 -21 c-3 -8 -1 -24 4 -36 l9 -23 0 22 c1 12 5 24 10
27 5 3 6 -14 4 -38 -5 -37 -2 -46 16 -58 30 -18 26 -26 -13 -25 -33 1 -34 2
-30 36 3 31 2 32 -5 11 -14 -40 -12 -60 6 -60 15 0 14 -2 -3 -14 -18 -14 -17
-15 13 -14 18 1 30 5 26 11 -6 10 35 0 52 -13 6 -5 29 -13 53 -19 34 -10 45
-18 57 -46 8 -21 25 -39 40 -45 29 -11 29 -22 3 -145 -21 -99 -21 -99 -73 10
-26 55 -60 112 -76 127 -44 43 -117 49 -164 14 -19 -15 -19 -15 10 -16 42 0
127 -42 153 -74 23 -30 47 -94 38 -103 -3 -3 -16 1 -29 10 -14 9 -28 12 -33 7
-5 -5 -29 1 -56 15 -42 21 -47 22 -50 7 -6 -27 -46 45 -54 95 l-6 43 -37 -28
c-44 -33 -82 -55 -87 -50 -4 5 35 201 42 207 2 2 4 -1 4 -7 0 -7 11 -12 25
-12 18 0 23 4 19 15 -4 11 1 15 17 16 17 1 19 3 7 6 -10 2 -18 10 -18 16 0 7
-3 23 -5 37 -5 21 -4 22 3 5 8 -18 10 -16 16 15 4 19 10 44 12 55 5 20 5 20
-10 1 -18 -22 -20 -18 -7 16 8 21 14 23 65 20 44 -3 56 -7 52 -18z m514 3 c0
-41 -52 -130 -88 -150 -40 -23 -56 -13 -73 44 -10 32 -9 42 5 64 24 37 75 65
119 65 32 0 37 -3 37 -23z m5059 -2 c69 -43 89 -95 55 -143 -22 -32 -63 -29
-102 9 -32 31 -77 133 -67 150 11 18 75 9 114 -16z m91 17 c0 -4 -10 -9 -22
-9 -18 -2 -20 0 -8 7 18 12 30 13 30 2z m-2419 -387 c309 -455 331 -486 493
-709 251 -342 279 -382 391 -551 109 -165 213 -314 254 -365 22 -26 26 -40 13
-40 -10 0 -518 406 -607 485 -61 54 -81 82 -157 216 -47 85 -112 206 -144 269
-31 63 -62 122 -70 130 -7 8 -110 207 -228 442 l-216 426 -126 -251 c-190
-379 -252 -496 -353 -674 -83 -145 -115 -194 -97 -148 3 8 -2 19 -12 24 -16
10 -16 10 0 11 9 0 19 -6 21 -12 3 -8 6 -6 6 5 1 9 -3 17 -7 17 -16 0 -9 59 7
63 11 3 5 8 -15 16 -18 7 -34 21 -37 32 -6 23 23 86 68 149 41 58 258 379 361
535 160 241 184 280 184 293 0 7 4 12 9 10 6 -1 123 -169 262 -373z m2869 344
c0 -6 -4 -7 -10 -4 -5 3 -10 11 -10 16 0 6 5 7 10 4 6 -3 10 -11 10 -16z
m-6060 -62 c0 -5 -4 -5 -10 -2 -5 3 -10 14 -10 23 0 15 2 15 10 2 5 -8 10 -19
10 -23z m200 18 c-7 -9 -15 -13 -17 -11 -7 7 7 26 19 26 6 0 6 -6 -2 -15z
m-30 -10 c0 -9 -6 -12 -17 -8 -10 4 -14 2 -9 -5 8 -13 -9 -24 -41 -28 -21 -2
-22 0 -11 13 10 13 59 40 76 43 1 0 2 -7 2 -15z m-1152 -82 c11 -15 37 -32 58
-39 33 -10 35 -12 13 -13 -36 -1 -75 -35 -90 -76 -14 -37 -35 -49 -26 -15 8
32 -37 79 -85 86 -41 7 -35 24 9 24 25 0 70 50 80 88 l6 27 8 -27 c4 -16 16
-40 27 -55z m6846 52 c-9 -14 -18 -25 -20 -25 -2 0 2 11 8 25 6 14 15 25 20
25 5 0 1 -11 -8 -25z m-231 -15 c3 -11 1 -20 -4 -20 -5 0 -9 9 -9 20 0 11 2
20 4 20 2 0 6 -9 9 -20z m0 -80 c3 -11 1 -18 -4 -14 -5 3 -9 12 -9 20 0 20 7
17 13 -6z m1253 -115 c10 -20 29 -43 42 -51 30 -19 28 -29 -8 -44 -17 -7 -38
-27 -47 -44 l-17 -31 -9 32 c-7 24 -18 35 -43 43 -41 14 -42 23 -5 49 15 11
34 34 41 51 7 16 16 30 20 30 4 0 15 -16 26 -35z m-6416 -80 c0 -8 -2 -15 -4
-15 -2 0 -6 7 -10 15 -3 8 -1 15 4 15 6 0 10 -7 10 -15z m5705 -83 c44 -45 65
-96 65 -154 0 -67 -9 -98 -26 -98 -7 0 -11 6 -9 13 3 6 -4 23 -15 37 l-20 25
-1 -30 c-1 -16 -1 -34 0 -40 1 -5 -16 9 -38 33 -46 50 -67 119 -57 193 11 78
13 81 47 64 15 -9 40 -28 54 -43z m-6386 17 c15 -44 13 -128 -4 -164 l-14 -30
6 30 c5 25 3 28 -8 18 -7 -7 -23 -13 -35 -13 -22 0 -93 -76 -95 -102 -1 -7 -5
7 -10 31 -16 83 28 198 93 240 44 28 54 26 67 -10z m608 -14 c2 -27 2 -28 -7
-8 -8 20 -13 21 -36 13 -14 -6 -42 -24 -62 -40 -41 -34 -52 -32 -28 6 18 27
90 66 116 61 9 -1 16 -15 17 -32z m5169 16 c43 -20 75 -54 73 -81 0 -10 -2
-11 -6 -2 -2 6 -9 10 -14 7 -5 -4 -6 2 -2 11 4 11 2 15 -4 11 -6 -4 -28 7 -49
23 -21 16 -45 30 -51 30 -7 0 -13 5 -13 10 0 15 20 12 66 -9z m-6146 -52 c81
-36 127 -93 156 -191 13 -42 13 -50 0 -63 -12 -13 -15 -13 -20 1 -3 8 -10 13
-16 9 -5 -3 -21 2 -35 11 -24 16 -25 16 -19 -1 6 -15 1 -14 -35 6 -61 34 -129
102 -151 152 -19 40 -26 98 -15 109 9 8 83 -10 135 -33z m7150 -4 c0 -57 -26
-109 -82 -163 -38 -37 -51 -44 -74 -41 -4 0 -10 -3 -13 -9 -11 -17 -67 -30
-84 -20 -22 12 -22 29 0 21 11 -4 14 -3 9 5 -12 19 -24 14 -40 -15 -19 -35
-19 -30 -2 28 30 100 66 150 131 186 27 15 129 51 148 52 4 1 7 -19 7 -44z
m-570 -23 c0 -4 -5 -13 -10 -18 -8 -8 -6 -15 5 -24 8 -7 14 -24 14 -39 -2 -23
-2 -24 -6 -3 -2 12 -9 22 -14 22 -6 0 -7 -6 -3 -12 4 -7 -2 -5 -13 5 -11 9
-33 17 -49 17 -29 1 -29 1 11 22 22 11 42 25 43 29 5 11 22 12 22 1z m-6048
-36 c13 2 5 -3 -17 -11 -21 -8 -43 -21 -47 -28 -5 -8 -8 -7 -8 5 0 9 6 19 13
21 7 3 5 6 -5 6 -21 1 -22 7 -5 25 10 12 15 11 29 -4 10 -11 26 -17 40 -14z
m133 -20 c22 -2 51 -4 65 -5 l25 -1 -6 -102 c-4 -57 -7 -104 -8 -106 -1 -2
-11 0 -23 4 -44 14 -99 -3 -165 -52 -37 -28 -39 -26 -48 74 -8 79 3 126 41
172 20 23 31 28 52 24 15 -3 45 -6 67 -8z m5815 -17 c7 -11 9 -27 6 -36 -4
-10 -2 -13 8 -10 31 12 46 -94 25 -177 l-11 -43 -76 44 c-66 37 -82 43 -115
37 l-38 -6 3 99 3 98 60 6 c116 11 124 10 135 -12z m-6969 -86 c14 25 38 21
49 -8 5 -14 14 -25 20 -25 18 0 11 -18 -10 -25 -13 -4 -20 -15 -20 -31 0 -28
-3 -29 -30 -12 -16 10 -24 10 -40 0 -28 -17 -30 -16 -30 18 0 18 -6 33 -15 36
-12 5 -11 11 7 35 21 28 22 28 41 12 18 -17 19 -17 28 0z m7979 -59 c-17 -32
-25 -30 -44 8 -15 29 -15 33 0 49 16 18 17 17 37 -7 17 -22 18 -29 7 -50z
m220 52 c0 -25 -15 -37 -37 -28 -14 4 -18 34 -6 45 3 4 15 7 25 7 12 0 18 -7
18 -24z m-7289 -116 c22 -75 17 -128 -19 -219 -22 -55 -27 -61 -33 -43 -5 12
-13 22 -19 22 -15 0 -41 -26 -33 -34 4 -3 1 -6 -5 -6 -6 0 -19 26 -28 57 -20
68 -14 143 15 200 22 43 77 96 94 90 6 -2 19 -32 28 -67z m6271 29 c49 -52 59
-78 60 -156 0 -44 -6 -74 -23 -107 -21 -43 -23 -44 -33 -24 -18 36 -39 36 -34
-1 2 -17 3 -31 2 -31 -8 0 -54 109 -64 151 -12 48 -2 132 23 186 14 32 24 29
69 -18z m-2772 -727 c222 -416 452 -848 510 -959 l105 -203 380 0 c209 0 390
-3 401 -6 22 -6 48 -47 37 -58 -4 -3 -180 -6 -392 -6 -212 1 -385 -2 -384 -5
1 -3 31 -58 66 -123 35 -64 95 -175 132 -247 126 -241 157 -300 212 -402 l54
-102 -228 -3 c-125 -2 -234 -1 -240 0 -15 5 -41 50 -159 277 -48 94 -101 196
-118 227 l-30 58 -749 2 c-412 2 -752 1 -757 -2 -4 -3 -43 -72 -85 -155 -43
-82 -85 -158 -93 -167 -8 -10 -12 -18 -8 -18 4 0 -10 -30 -30 -67 -21 -38 -46
-86 -57 -108 -11 -22 -23 -42 -27 -45 -5 -3 -114 -4 -245 -2 l-236 3 19 32
c11 18 34 61 53 97 18 36 36 67 39 70 3 3 24 43 47 90 87 176 265 510 295 552
10 14 18 29 18 32 0 3 -127 6 -282 6 -283 0 -344 6 -369 36 -10 13 -10 17 2
25 8 5 165 9 350 9 l335 0 44 83 c24 45 55 105 70 132 15 28 74 138 130 245
57 107 174 330 262 495 88 165 167 316 178 335 10 19 81 154 158 300 76 146
147 280 156 298 9 17 20 32 24 32 4 0 189 -341 412 -758z m-3000 720 c65 -33
117 -96 147 -181 l21 -59 -49 -9 c-27 -6 -52 -6 -55 -2 -8 14 -24 11 -21 -3 3
-16 -43 -12 -72 6 -11 7 -13 5 -7 -9 7 -18 6 -18 -13 -1 -11 10 -24 15 -29 12
-13 -8 -20 11 -28 74 l-6 49 33 -9 c18 -5 37 -14 43 -20 12 -12 46 -13 46 -1
0 5 -27 26 -60 47 -59 39 -60 39 -60 87 0 45 1 47 28 47 15 0 52 -13 82 -28z
m5288 -24 c3 -46 2 -47 -42 -73 -49 -28 -72 -52 -62 -62 3 -3 16 -1 29 5 12 6
34 16 50 22 26 9 27 9 27 -28 0 -20 -10 -57 -22 -82 -20 -43 -21 -44 -28 -20
-5 14 -8 19 -9 11 -1 -7 -7 -11 -16 -7 -8 3 -15 1 -15 -5 0 -6 -6 -7 -12 -2
-7 4 -21 6 -31 4 -15 -2 -17 2 -12 20 7 20 5 21 -21 15 -16 -4 -32 -12 -35
-18 -4 -6 -12 -7 -18 -4 -6 4 -14 0 -17 -8 -12 -32 -27 -16 -21 21 20 122 152
270 232 260 16 -2 21 -11 23 -49z m-6302 -19 c66 -12 193 -75 240 -120 31 -30
120 -186 111 -195 -7 -8 -47 15 -47 26 0 6 -3 9 -7 8 -14 -2 -66 25 -191 101
-67 41 -125 72 -128 69 -5 -6 90 -85 179 -148 26 -18 47 -38 47 -43 0 -5 -6
-4 -14 2 -11 9 -18 8 -30 -4 -9 -9 -16 -12 -16 -6 0 17 -15 13 -41 -10 -22
-20 -22 -21 -3 -15 13 4 21 2 21 -6 0 -7 -13 -13 -28 -14 -16 -1 -26 2 -24 7
3 4 -3 5 -13 2 -26 -6 -140 82 -178 138 -28 43 -55 114 -69 187 l-7 32 69 0
c38 0 96 -5 129 -11z m7407 -30 c-3 -53 -38 -138 -81 -194 -52 -69 -177 -149
-159 -102 3 8 1 20 -5 28 -8 11 -9 10 -4 -3 6 -19 5 -19 -46 -22 -33 -2 -74
11 -65 21 3 2 15 0 26 -7 13 -6 21 -7 21 -1 0 11 -38 26 -60 23 -9 -2 -4 6 10
18 14 11 32 26 40 33 8 8 48 38 87 67 119 88 83 77 -97 -28 -52 -30 -103 -62
-112 -70 -13 -11 -21 -12 -31 -3 -17 13 -27 5 -20 -17 4 -15 3 -15 -6 -2 -16
22 -13 46 10 91 65 129 229 210 414 206 l80 -2 -2 -36z m-6601 -65 c29 -137
21 -224 -31 -336 -23 -50 -27 -54 -51 -38 -11 7 -17 5 -22 -8 -4 -11 -7 -5 -7
18 -1 26 -4 31 -11 20 -8 -12 -10 -11 -10 7 0 12 -5 25 -10 28 -6 4 -8 11 -4
16 3 5 10 6 16 3 6 -4 8 -3 5 2 -3 6 14 43 39 84 42 71 65 138 25 75 -10 -16
-53 -75 -95 -130 -42 -55 -83 -122 -92 -148 -19 -57 -35 -51 -53 18 -16 62
-14 100 9 179 23 83 72 160 133 211 53 44 118 84 132 81 5 -2 17 -38 27 -82z
m5771 -14 c117 -107 176 -281 132 -387 l-16 -37 -24 39 c-13 22 -25 36 -25 30
-1 -5 -10 8 -22 30 -29 55 -152 218 -156 206 -2 -5 17 -44 42 -87 25 -42 43
-81 40 -86 -3 -4 0 -8 6 -8 7 0 9 -8 5 -21 -5 -14 -3 -19 3 -15 6 4 8 -2 5
-14 -3 -12 0 -20 6 -20 7 0 9 -5 6 -10 -4 -7 -12 -7 -25 0 -15 8 -20 6 -26
-12 l-6 -21 -13 23 c-14 26 -31 11 -21 -18 16 -43 -36 39 -55 88 -38 100 -44
169 -25 283 10 56 23 107 28 114 14 18 72 -14 141 -77z m-3763 70 c12 -8 11
-10 -7 -10 -13 0 -23 5 -23 10 0 13 11 13 30 0z m-192 -136 c46 -65 90 -129
99 -142 13 -19 14 -27 3 -47 -7 -14 -16 -25 -19 -25 -3 1 -49 68 -102 151 -66
103 -95 156 -92 170 3 11 10 18 17 16 6 -2 48 -57 94 -123z m252 106 c0 -5
-12 -10 -27 -10 -22 0 -25 2 -13 10 20 13 40 13 40 0z m-160 -10 c0 -5 -7 -10
-15 -10 -8 0 -15 5 -15 10 0 6 7 10 15 10 8 0 15 -4 15 -10z m1974 -6 c4 -10
-18 -54 -60 -118 -101 -155 -109 -166 -115 -166 -14 0 -18 32 -7 53 27 52 160
247 167 247 5 0 12 -7 15 -16z m1693 -6 c-3 -8 -6 -5 -6 6 -1 11 2 17 5 13 3
-3 4 -12 1 -19z m-3404 -68 c3 -11 3 -20 1 -20 -2 0 -8 9 -14 20 -6 11 -7 20
-2 20 6 0 12 -9 15 -20z m-3535 -34 c61 -31 127 -97 157 -157 23 -45 45 -143
45 -201 l0 -27 -61 32 c-79 41 -154 114 -181 173 -24 55 -38 204 -19 204 6 0
33 -11 59 -24z m8400 -58 c-5 -91 -32 -159 -84 -211 -25 -26 -154 -107 -168
-107 -10 0 -7 72 5 135 20 109 86 200 174 241 78 37 78 36 73 -58z m-2885
-235 c372 -562 508 -777 506 -805 0 -10 -2 -10 -6 -1 -3 10 -8 9 -20 -2 -16
-17 -43 -20 -43 -5 0 6 5 10 10 10 6 0 10 5 10 11 0 8 -4 8 -14 0 -11 -9 -16
-9 -21 0 -6 8 -9 8 -15 -1 -9 -14 -70 76 -158 230 -121 214 -459 826 -465 842
-5 14 0 28 9 28 2 0 95 -138 207 -307z m-1973 272 c0 -12 -19 -12 -23 0 -4 9
-1 12 9 8 7 -3 14 -7 14 -8z m15 -86 c-5 -6 -12 -4 -20 8 -17 23 -8 38 11 18
9 -8 12 -20 9 -26z m3889 5 c3 -8 2 -12 -4 -9 -6 3 -10 10 -10 16 0 14 7 11
14 -7z m-3893 -24 c10 0 19 -2 19 -4 0 -7 -78 -153 -120 -226 -21 -36 -44 -81
-53 -101 -21 -52 -174 -188 -457 -406 -69 -53 -137 -107 -152 -121 -43 -39
-41 -22 2 33 144 182 380 495 430 568 14 20 32 36 40 34 9 -1 14 7 15 23 0 16
8 29 23 35 12 5 22 13 22 17 0 5 7 8 16 8 11 0 14 6 9 21 -6 16 -3 20 11 17
10 -1 16 -7 15 -13 -4 -14 33 -24 41 -11 13 19 9 26 -17 26 -14 0 -25 4 -25
10 0 9 58 3 70 -7 2 -2 -1 -13 -8 -23 -16 -26 -15 -35 1 -18 12 12 26 39 32
61 2 4 4 10 5 15 1 4 2 11 1 16 -1 5 6 6 16 3 10 -2 24 -6 32 -8 7 -2 16 2 19
10 3 10 0 12 -11 8 -9 -3 -21 1 -28 9 -11 13 -10 15 7 12 14 -2 18 2 17 17 -1
11 0 14 3 8 3 -7 14 -13 25 -13z m-3225 -52 c41 -59 41 -141 -1 -215 -17 -29
-33 -53 -36 -53 -31 0 -73 128 -62 190 9 51 45 120 63 120 4 0 20 -19 36 -42z
m384 32 c0 -5 -4 -10 -10 -10 -5 0 -10 5 -10 10 0 6 5 10 10 10 6 0 10 -4 10
-10z m1226 -36 c31 -30 44 -58 44 -97 0 -30 -3 -34 -20 -30 -11 3 -39 22 -61
42 -41 36 -42 38 -35 84 7 44 8 46 29 34 11 -6 31 -21 43 -33z m100 37 c-4 -5
38 -8 101 -5 98 3 106 2 83 -11 l-25 -14 38 -1 c30 0 37 -4 37 -20 0 -12 -7
-20 -17 -21 -13 0 -14 -2 -4 -6 22 -9 51 -42 51 -59 0 -8 4 -12 10 -9 6 3 7
-1 4 -10 -4 -8 -1 -22 6 -30 7 -8 10 -23 8 -33 -3 -11 0 -19 8 -19 8 0 14 10
14 21 0 17 2 18 9 6 6 -8 7 -18 5 -22 -3 -4 1 -8 9 -8 8 0 17 -9 20 -20 3 -11
1 -20 -4 -20 -5 0 -1 -9 8 -19 9 -11 22 -17 29 -14 8 3 11 -2 8 -15 -4 -15 0
-19 18 -18 18 1 23 -4 22 -21 0 -13 3 -23 8 -23 5 0 6 -5 2 -11 -4 -7 1 -7 16
1 20 11 21 10 15 -12 -4 -12 -13 -26 -19 -30 -7 -5 -4 -8 7 -8 25 0 21 -15
-19 -82 l-37 -60 -33 58 c-19 33 -34 62 -34 66 0 4 -9 5 -20 3 -12 -2 -18 0
-15 6 4 5 11 6 17 3 16 -10 0 47 -18 66 -10 10 -14 11 -14 2 0 -7 6 -12 13
-12 7 -1 5 -6 -5 -14 -10 -7 -18 -16 -18 -19 0 -4 8 -4 18 -1 10 4 13 2 7 -3
-5 -4 -13 -12 -16 -16 -3 -4 -16 5 -30 19 -15 16 -18 23 -7 19 9 -4 19 -2 23
4 3 6 1 11 -5 11 -6 0 -8 5 -5 10 3 6 0 10 -8 10 -11 0 -13 7 -9 22 4 17 2 20
-11 15 -14 -5 -17 1 -17 41 0 111 -33 124 -65 24 l-21 -62 -67 55 -67 55 0 67
c0 49 -5 72 -17 86 -15 17 -16 19 -2 15 10 -4 16 -1 16 8 0 10 -7 12 -21 9
-21 -6 -21 -6 -1 11 15 12 17 17 6 21 -11 5 -11 7 0 14 18 11 22 11 15 0z
m5660 0 c10 8 14 8 14 1 0 -6 -9 -16 -20 -22 -14 -7 -20 -7 -20 0 0 5 -8 10
-17 11 -15 0 -15 2 2 8 11 5 22 4 23 -1 2 -5 10 -4 18 3z m394 -63 c18 -42 21
-64 17 -111 -5 -59 -41 -130 -62 -124 -22 7 -65 110 -65 153 0 74 48 166 75
144 7 -6 23 -34 35 -62z m-1780 51 c0 -6 7 -8 18 -4 12 4 10 0 -6 -15 -13 -12
-26 -19 -30 -15 -3 3 0 10 8 15 10 7 11 10 3 10 -7 0 -13 5 -13 10 0 6 5 10
10 10 6 0 10 -5 10 -11z m-4604 -25 c43 -29 94 -74 94 -84 0 -3 -9 -6 -21 -7
-28 -2 -122 -33 -133 -44 -6 -5 -22 -9 -37 -9 -15 0 -32 -7 -39 -15 -7 -8 -21
-15 -32 -15 -10 0 -21 -6 -24 -14 -3 -9 -12 -12 -21 -9 -12 5 -14 3 -8 -8 6
-11 5 -12 -6 -1 -15 14 -49 16 -49 2 0 -5 -7 -6 -17 -3 -12 5 -14 3 -8 -7 5
-8 4 -11 -2 -7 -5 3 -17 23 -27 44 -16 37 -16 41 1 87 10 27 30 58 45 69 36
27 110 46 184 46 50 1 68 -4 100 -25z m5167 -2 c40 -18 47 -26 66 -76 27 -74
27 -82 -9 -123 -25 -28 -30 -30 -30 -14 0 11 -5 23 -12 27 -6 4 -8 3 -4 -4 3
-6 2 -13 -4 -17 -5 -3 -15 6 -22 20 -6 14 -17 24 -24 21 -8 -3 -16 -1 -19 4
-4 6 -15 10 -26 10 -10 0 -19 4 -19 8 0 5 -6 9 -14 9 -8 0 -12 -6 -9 -14 4
-11 1 -12 -21 -2 -14 7 -26 16 -26 20 0 5 -6 6 -13 4 -7 -3 -30 4 -52 15 -21
11 -48 20 -60 20 -11 0 -26 4 -33 9 -18 11 38 67 93 93 52 24 171 19 238 -10z
m-3423 -4 c0 -16 -3 -19 -11 -11 -6 6 -8 16 -5 22 11 17 16 13 16 -11z m-1565
-152 c61 -42 104 -84 90 -89 -33 -13 -108 -17 -186 -9 -95 8 -102 2 -46 -40
17 -12 39 -31 49 -41 10 -10 23 -15 29 -12 5 4 8 3 7 -2 -2 -4 9 -24 25 -44
30 -40 34 -54 13 -46 -10 4 -13 1 -9 -9 7 -19 -9 -18 -33 4 -29 25 -186 104
-179 89 4 -6 -7 3 -24 21 -39 41 -39 69 -1 117 16 20 28 41 25 45 -11 18 31
33 108 39 88 7 87 8 132 -23z m4728 18 c37 -3 65 -10 62 -15 -4 -5 1 -9 10 -9
9 0 15 -6 12 -12 -3 -7 15 -34 40 -59 41 -43 44 -48 31 -68 -7 -12 -62 -47
-123 -76 -60 -30 -130 -68 -154 -84 -25 -17 -48 -28 -52 -25 -4 2 -11 -5 -14
-17 -4 -11 -9 -18 -11 -16 -7 7 28 77 38 77 5 0 7 4 4 8 -3 5 18 32 45 60 28
29 46 52 40 52 -5 0 -13 -4 -16 -10 -8 -13 -25 -13 -25 1 0 5 5 7 12 3 8 -5 9
-2 5 10 -4 10 -3 15 3 11 6 -3 7 1 4 9 -3 9 -11 13 -18 9 -6 -3 -8 -2 -4 2 12
12 52 15 69 4 12 -8 12 -10 -1 -19 -8 -5 -11 -10 -7 -10 13 0 67 33 67 41 0 4
-39 7 -87 9 -49 1 -117 5 -153 8 l-65 7 79 62 c65 51 84 61 110 57 17 -2 61
-6 99 -10z m187 -59 c14 -19 14 -19 -2 -6 -10 7 -18 18 -18 24 0 6 1 8 3 6 1
-2 9 -13 17 -24z m-6330 5 c21 -13 19 -135 -4 -180 -35 -66 -71 -119 -81 -116
-14 4 -44 96 -45 139 0 64 40 139 85 158 26 10 28 10 45 -1z m385 -18 c89 -24
146 -53 200 -103 43 -40 105 -142 93 -154 -3 -4 -42 12 -85 34 -43 22 -119 55
-168 71 -48 17 -101 38 -118 46 -19 10 -28 12 -25 4 3 -11 77 -57 156 -97 37
-19 41 -33 10 -34 -13 0 -18 -3 -11 -5 7 -3 9 -12 6 -20 -3 -8 1 -14 10 -14 8
0 21 -8 28 -17 12 -15 12 -16 -4 -10 -11 4 -31 10 -45 13 -15 4 -33 11 -39 17
-7 5 -13 6 -13 1 0 -5 -5 -2 -10 6 -7 11 -10 12 -10 2 0 -8 9 -16 20 -19 11
-3 20 -9 20 -14 0 -19 -97 41 -141 88 -57 60 -87 101 -128 177 l-32 59 108 -6
c59 -4 140 -15 178 -25z m6895 22 c0 -12 -56 -101 -96 -154 -54 -71 -116 -128
-163 -147 -55 -24 -74 -22 -88 9 -16 37 -36 37 -27 1 7 -26 6 -27 -10 -10 -9
9 -14 21 -11 27 9 15 -6 12 -26 -6 -13 -12 -19 -12 -25 -3 -4 7 -3 10 3 6 6
-4 13 -1 16 7 3 7 62 41 132 75 70 34 125 65 122 68 -10 9 -221 -68 -318 -116
-96 -48 -97 -48 -88 -21 18 50 74 124 121 160 58 43 146 78 241 95 74 14 217
20 217 9z m183 -27 c59 -55 72 -158 32 -253 l-16 -39 -19 25 c-10 13 -34 49
-52 79 -29 48 -33 64 -32 121 0 36 3 73 7 83 10 26 42 20 80 -16z m-6466 -13
c2 -13 1 -15 -4 -4 -3 8 -11 19 -17 23 -7 6 -6 7 4 4 8 -2 16 -12 17 -23z
m5378 16 c-3 -5 -12 -10 -18 -10 -7 0 -6 4 3 10 19 12 23 12 15 0z m-5525 -51
c24 -57 -15 -169 -64 -185 -29 -9 -66 40 -66 88 0 32 8 47 46 88 49 53 65 55
84 9z m124 26 c3 -9 -3 -19 -14 -25 -17 -9 -20 -7 -20 8 0 32 23 44 34 17z
m-1349 -17 c55 -14 109 -43 140 -75 25 -27 95 -153 95 -172 0 -11 -123 12
-170 32 -58 25 -118 75 -139 114 -22 45 -41 109 -34 117 6 5 45 0 108 -16z
m6987 -15 c42 -45 58 -73 58 -105 -1 -24 -24 -62 -40 -64 -6 -1 -15 -2 -21 -3
-5 0 -7 -7 -4 -13 4 -7 -9 4 -29 24 -49 52 -68 141 -39 191 10 17 41 4 75 -30z
m1262 10 c-28 -117 -112 -196 -243 -228 -102 -25 -106 -22 -71 50 64 133 130
176 313 204 4 0 4 -11 1 -26z m-5914 13 c0 -11 -19 -15 -25 -6 -3 5 1 10 9 10
9 0 16 -2 16 -4z m3495 -26 c-3 -5 -10 -10 -16 -10 -5 0 -9 5 -9 10 0 6 7 10
16 10 8 0 12 -4 9 -10z m-3852 -39 c23 -16 53 -39 68 -52 14 -13 43 -36 65
-52 21 -15 60 -47 86 -70 l47 -44 -99 -10 c-70 -7 -113 -17 -149 -35 -46 -22
-50 -23 -34 -5 18 19 17 20 -5 8 -21 -11 -23 -11 -14 6 11 21 5 46 -9 37 -5
-3 -9 1 -9 10 0 8 -6 17 -12 19 -7 3 -1 6 13 6 49 2 149 57 149 82 0 16 -53
10 -107 -13 -59 -24 -63 -22 -108 42 -24 35 -26 42 -14 56 13 16 64 43 82 44
5 0 27 -13 50 -29z m4273 9 c51 -24 55 -40 19 -93 -29 -41 -40 -44 -93 -21
-59 26 -88 32 -102 24 -34 -21 47 -85 122 -96 24 -4 37 -9 30 -12 -6 -2 -10
-8 -7 -12 3 -5 -1 -26 -10 -46 -8 -20 -12 -41 -9 -48 3 -6 -2 -2 -10 8 -9 11
-16 17 -16 13 0 -3 -24 5 -54 18 -35 16 -84 26 -142 31 l-87 7 35 31 c19 17
61 51 92 76 31 25 71 58 89 74 28 25 87 66 95 66 2 0 23 -9 48 -20z m-495 -29
c-7 -5 -10 -14 -7 -20 4 -6 2 -11 -3 -11 -12 0 -15 23 -4 33 3 4 11 7 17 7 6
0 5 -4 -3 -9z m-36 -31 c-3 -5 -12 -10 -18 -10 -7 0 -6 4 3 10 19 12 23 12 15
0z m-5226 -84 c66 -135 64 -231 -8 -374 l-37 -74 -39 108 c-49 135 -54 228
-17 309 28 61 50 95 61 95 4 0 22 -29 40 -64z m7208 36 c78 -105 87 -204 34
-357 -17 -49 -28 -74 -25 -55 4 26 3 31 -5 20 -6 -8 -11 -29 -11 -47 0 -61
-19 -42 -59 61 -46 118 -52 184 -25 277 16 55 53 129 64 129 3 0 15 -13 27
-28z m-1035 -31 c-4 -9 -7 -11 -9 -4 -3 7 -11 9 -20 6 -10 -4 -14 -2 -9 5 10
17 45 11 38 -7z m-5762 -17 c0 -2 -7 -4 -15 -4 -8 0 -15 4 -15 10 0 5 7 7 15
4 8 -4 15 -8 15 -10z m7465 6 c11 -18 -6 -50 -26 -50 -22 0 -34 22 -25 45 6
17 42 20 51 5z m-7515 -10 c0 -5 -2 -10 -4 -10 -3 0 -8 5 -11 10 -3 6 -1 10 4
10 6 0 11 -4 11 -10z m690 -19 c0 -17 5 -33 10 -36 12 -8 13 -25 1 -25 -5 0
-12 12 -15 28 -4 15 -9 35 -12 45 -3 9 -1 17 5 17 6 0 11 -13 11 -29z m-620 0
c0 -14 -18 -23 -31 -15 -8 4 -7 9 2 15 18 11 29 11 29 0z m339 -78 c1 -17 -3
-35 -9 -38 -5 -3 -10 2 -10 12 0 15 -2 15 -9 3 -6 -8 -7 -19 -4 -25 4 -5 3 -7
-1 -3 -4 3 -7 8 -6 10 1 2 -3 14 -8 28 -11 28 2 75 18 65 6 -4 10 -3 9 2 -1 4
0 13 1 18 3 17 18 -38 19 -72z m5996 47 c13 0 27 -5 30 -10 4 -7 -3 -8 -22 -4
-37 9 -43 13 -42 27 0 9 2 9 6 0 2 -7 15 -13 28 -13z m-7431 -1 c5 -5 9 -30 7
-46 -2 -19 -31 -16 -31 3 0 8 -5 12 -10 9 -6 -4 -7 -11 -4 -17 4 -6 -1 -8 -12
-6 -22 4 -30 33 -14 53 10 11 54 14 64 4z m7066 -55 c0 -8 -4 -12 -10 -9 -5 3
-10 10 -10 16 0 5 5 9 10 9 6 0 10 -7 10 -16z m-6673 -58 c57 -29 117 -109
148 -196 l13 -37 -37 7 c-60 11 -146 55 -196 101 -41 38 -95 122 -95 147 0 13
134 -5 167 -22z m7856 25 c4 -1 -4 -24 -19 -52 -29 -57 -91 -122 -144 -149
-41 -21 -149 -54 -156 -47 -2 2 9 33 25 69 32 72 79 132 122 154 29 14 122 32
149 28 8 -1 18 -3 23 -3z m-6819 -35 c-6 -16 -24 -13 -24 5 0 6 5 7 10 4 6 -3
10 -1 10 6 0 7 2 10 5 7 3 -3 3 -13 -1 -22z m1036 -8 c-12 -18 -33 -52 -48
-75 -28 -44 -49 -53 -127 -53 -35 0 -44 -4 -53 -25 -9 -19 -12 -297 -12 -1060
l0 -1035 29 -32 29 -33 1956 0 1955 0 36 35 35 34 -2 1043 c-2 831 -6 1045
-16 1055 -7 7 -45 14 -87 16 l-74 4 -51 80 -51 80 123 -4 c139 -3 173 -15 237
-78 45 -44 68 -90 81 -161 6 -32 10 -439 10 -1063 l0 -1012 -34 -70 c-37 -77
-77 -118 -134 -134 -26 -8 -639 -10 -2047 -8 -1920 3 -2011 4 -2037 21 -14 10
-35 35 -45 55 -17 35 -18 90 -18 1153 l0 1115 30 59 c23 45 41 65 76 86 60 35
67 36 172 38 l89 1 -22 -32z m5224 -73 c49 -100 71 -200 59 -262 -5 -27 -14
-47 -21 -46 -6 2 -9 -3 -6 -11 3 -8 1 -17 -5 -21 -6 -3 -11 -1 -11 6 0 7 -3 9
-6 6 -17 -17 -91 115 -99 178 -10 73 23 243 45 230 4 -2 24 -38 44 -80z
m-6829 4 c31 -116 12 -223 -56 -308 -22 -28 -44 -51 -48 -51 -17 0 -31 55 -31
121 0 78 33 192 77 267 29 51 38 47 58 -29z m6654 20 c-5 -10 -18 -24 -29 -32
-11 -8 -18 -16 -15 -19 3 -3 -11 -20 -32 -38 -27 -24 -38 -29 -41 -19 -2 8
-11 20 -20 27 -10 7 -11 12 -4 12 7 0 12 7 12 16 0 12 -9 14 -47 9 -41 -4 -44
-4 -23 6 30 14 178 56 196 56 9 0 10 -5 3 -18z m-6448 -11 c37 -13 56 -24 46
-26 -10 -2 -23 1 -30 6 -9 8 -12 2 -11 -24 2 -33 1 -34 -15 -20 -22 20 -37 21
-21 1 11 -13 10 -14 -4 -9 -9 3 -16 12 -16 20 0 8 -6 14 -12 15 -7 0 -4 4 7 9
18 8 18 9 2 9 -11 1 -15 5 -11 13 5 8 2 9 -9 5 -9 -3 -19 -1 -23 5 -4 7 -3 8
4 4 7 -4 12 -2 12 3 0 15 7 14 81 -11z m59 -55 c0 -14 -2 -15 -9 -4 -5 8 -14
10 -21 6 -9 -5 -11 -4 -6 3 11 18 36 14 36 -5z m5497 -15 c-3 -8 -6 -5 -6 6
-1 11 2 17 5 13 3 -3 4 -12 1 -19z m-6487 -16 c89 -29 212 -107 304 -193 104
-97 170 -195 119 -174 -10 4 -25 8 -35 10 -9 2 -29 10 -45 18 -62 32 -171 55
-288 61 -71 4 -140 14 -170 24 -70 24 -157 111 -195 196 -17 36 -30 68 -30 70
0 24 257 14 340 -12z m8545 16 c16 -16 -60 -153 -113 -204 -62 -59 -116 -76
-282 -90 -171 -14 -194 -19 -311 -70 -45 -19 -82 -34 -84 -34 -2 0 1 15 7 33
15 41 164 190 247 246 72 49 168 95 244 116 51 14 279 17 292 3z m-6939 -25
c3 -16 8 -34 10 -42 7 -23 -8 -82 -20 -78 -6 2 -20 1 -32 -4 -11 -4 -37 -10
-57 -13 l-37 -6 0 43 c0 49 10 66 59 102 46 33 69 32 77 -2z m96 -5 c-8 -8 -9
-4 -5 13 4 13 8 18 11 10 2 -7 -1 -18 -6 -23z m4975 7 c49 -29 76 -73 67 -109
-5 -22 -10 -24 -47 -20 -60 5 -96 23 -103 49 -7 29 13 105 28 105 6 0 31 -11
55 -25z m554 -2 c13 -16 12 -17 -3 -4 -10 7 -18 15 -18 17 0 8 8 3 21 -13z
m-5501 -58 c0 -14 5 -25 11 -25 8 0 9 -13 5 -40 -4 -29 -3 -40 6 -40 9 -1 8
-4 -2 -13 -9 -7 -14 -20 -12 -29 2 -10 -12 -33 -32 -53 -20 -20 -36 -42 -36
-50 0 -8 -4 -15 -10 -15 -5 0 -10 -6 -10 -14 0 -8 -5 -18 -11 -22 -8 -4 -9 1
-3 17 4 13 7 35 6 49 0 14 9 52 22 85 13 33 29 86 36 118 12 58 30 78 30 32z
m4745 -42 l-5 -38 13 40 13 40 8 -34 c5 -19 21 -61 37 -95 21 -44 29 -76 29
-116 0 -61 -13 -96 -23 -61 -3 12 -1 19 4 15 5 -3 6 2 3 10 -3 9 -10 13 -15
10 -5 -3 -9 5 -9 17 0 36 -23 90 -36 85 -19 -7 -41 96 -29 141 9 37 16 26 10
-14z m-5612 -92 c37 -82 21 -219 -32 -287 l-20 -25 -38 50 c-20 28 -41 51 -45
51 -17 0 -6 78 18 130 36 78 77 140 87 133 5 -3 19 -26 30 -52z m6598 -88 c28
-55 59 -109 71 -119 20 -19 20 -18 44 11 13 17 50 81 81 143 40 76 63 111 73
109 25 -5 14 -40 -51 -159 -73 -134 -155 -258 -186 -282 -21 -15 -25 -15 -53
-1 -16 8 -30 19 -30 24 0 15 90 92 100 86 20 -12 9 21 -12 39 -17 15 -23 16
-26 6 -3 -8 -23 -33 -45 -58 l-41 -44 -30 64 c-27 55 -30 74 -31 153 0 76 4
97 24 134 l23 45 19 -25 c11 -13 42 -70 70 -126z m-6955 75 c48 -79 120 -179
141 -195 11 -8 22 -9 34 -3 26 14 34 -6 15 -35 -20 -31 -20 -34 2 -29 11 3 33
-11 62 -41 48 -49 47 -57 -8 -71 -39 -11 -67 25 -299 377 -28 43 -29 59 -4 59
13 0 32 -21 57 -62z m812 5 c-15 -2 -42 -2 -60 0 -18 2 -6 4 27 4 33 0 48 -2
33 -4z m5576 -2 c4 -5 41 -8 84 -6 72 3 79 -11 7 -16 -24 -1 -26 -3 -7 -6 34
-7 27 -17 -20 -30 -72 -20 -128 -26 -128 -14 0 6 7 11 15 11 10 0 15 11 15 35
0 34 20 49 34 26z m-5444 -43 c0 -4 -4 -8 -9 -8 -6 0 -12 4 -15 8 -3 5 1 9 9
9 8 0 15 -4 15 -9z m5370 -26 c0 -9 -45 -10 -53 -2 -3 3 8 6 24 7 16 1 29 -1
29 -5z m-5756 -44 c51 -89 74 -271 46 -364 -10 -34 -17 -41 -36 -41 -14 0 -24
5 -24 14 0 8 -6 13 -12 10 -7 -2 -25 0 -40 4 -33 9 -38 3 -44 -58 -2 -27 -5
-56 -6 -65 -3 -26 -23 -4 -48 54 -41 96 -21 238 55 374 27 50 73 114 80 114 2
0 15 -19 29 -42z m6153 -20 c115 -185 141 -334 78 -458 -15 -29 -28 -50 -29
-48 -2 1 -6 29 -9 60 -3 31 -8 61 -11 66 -3 5 -28 8 -56 7 -32 -2 -50 1 -51 9
0 6 -5 0 -11 -14 -10 -25 -10 -25 -24 14 -21 58 -28 163 -15 230 11 60 68 196
82 196 4 0 25 -28 46 -62z m-1268 -17 c7 -13 6 -24 -3 -37 -12 -16 -18 -16
-40 -6 -30 13 -34 36 -8 51 26 15 40 13 51 -8z m-5570 -71 c72 -28 96 -44 158
-104 40 -39 73 -73 73 -76 0 -3 -35 -5 -77 -6 -43 0 -130 -2 -193 -5 -111 -4
-117 -3 -172 25 -58 29 -67 37 -146 133 l-43 52 48 6 c26 4 53 8 58 11 6 2 55
2 110 0 84 -3 113 -8 184 -36z m7768 29 c43 -6 80 -12 82 -15 6 -5 -40 -62
-93 -116 -81 -83 -82 -83 -327 -83 -249 0 -241 -5 -137 89 127 116 271 153
475 125z m331 -73 c4 -21 -14 -37 -35 -29 -14 5 -18 35 -6 47 12 12 38 1 41
-18z m-8704 -20 c9 -13 7 -20 -7 -31 -25 -18 -47 -8 -47 20 0 37 34 44 54 11z
m1691 -56 c-3 -5 -12 -10 -18 -10 -7 0 -6 4 3 10 19 12 23 12 15 0z m5317 -18
c4 -4 -4 -8 -17 -8 -14 -1 -23 2 -20 6 3 5 0 10 -7 13 -7 2 -2 2 12 0 14 -3
28 -7 32 -11z m-5417 -174 c16 -69 20 -198 5 -163 -8 18 -9 18 -9 2 -1 -10 -5
-16 -10 -13 -5 4 -7 -2 -4 -12 3 -13 -1 -19 -14 -19 -10 0 -20 3 -23 8 -3 4
-17 5 -32 2 -32 -6 -48 -48 -48 -125 0 -27 -4 -48 -9 -48 -5 0 -7 -10 -4 -22
5 -22 4 -22 -16 2 -53 65 -70 142 -52 246 13 71 72 210 118 277 l27 39 28 -56
c15 -31 35 -84 43 -118z m5606 92 c58 -98 99 -220 99 -296 0 -64 -15 -124 -32
-124 -5 0 -7 -3 -4 -8 2 -4 -7 -25 -20 -47 l-24 -40 0 74 c0 68 -8 109 -31
166 l-8 20 0 -20 c-1 -25 -101 -70 -113 -51 -13 20 -8 170 7 231 19 74 60 165
74 165 6 0 29 -32 52 -70z m846 -82 c35 -10 74 -29 89 -41 l26 -23 -79 -27
c-49 -18 -125 -34 -203 -43 -86 -10 -141 -22 -177 -39 -57 -26 -73 -50 -25
-39 24 7 26 6 13 -9 -17 -21 -8 -22 12 -2 21 20 108 5 178 -31 l54 -27 -45
-20 c-59 -26 -139 -35 -151 -16 -7 12 -9 11 -9 -1 0 -9 -3 -11 -8 -5 -13 18
-69 45 -78 37 -4 -4 -2 1 5 10 11 15 10 16 -16 10 -34 -9 -75 -4 -68 9 4 5 -2
6 -12 2 -15 -6 -13 -9 12 -20 29 -13 29 -13 -15 -7 -62 9 -92 22 -87 37 2 6
10 11 16 9 7 -1 10 2 6 8 -12 19 166 187 229 216 104 47 207 51 333 12z
m-7096 -14 c45 -22 88 -54 140 -105 98 -98 129 -134 108 -126 -11 3 -16 0 -15
-10 1 -9 -18 -22 -47 -34 -41 -16 -55 -18 -89 -9 -22 6 -38 14 -35 16 3 3 22
1 43 -5 21 -6 40 -8 43 -6 8 9 -4 13 -48 17 -40 3 -44 1 -47 -22 -3 -16 -1
-20 4 -12 6 9 16 10 32 4 l24 -9 -25 -6 c-58 -15 -174 -7 -231 16 -32 12 -58
25 -58 28 0 20 156 69 219 69 36 0 41 2 32 14 -17 20 -104 43 -211 57 -52 6
-126 22 -165 36 -38 13 -78 27 -87 30 -29 9 -21 18 40 46 94 43 113 47 212 44
82 -2 104 -7 161 -33z m7539 15 c9 -16 8 -25 -6 -40 -23 -26 -42 -24 -56 6
-21 46 39 79 62 34z m-7189 -32 c-10 -9 -11 -8 -5 6 3 10 9 15 12 12 3 -3 0
-11 -7 -18z m5580 -150 c-6 -6 -11 -20 -11 -31 1 -18 3 -17 16 7 9 16 17 27
19 25 1 -1 19 -32 38 -68 60 -113 88 -243 67 -319 -8 -32 -14 -40 -20 -30 -7
10 -11 8 -18 -10 -5 -15 -11 -20 -16 -13 -3 6 -2 13 4 17 5 3 9 23 9 43 l-2
37 -6 -35 c-6 -32 -8 -30 -18 35 -21 124 -47 230 -63 250 -17 22 -22 78 -9
102 7 14 15 20 17 13 2 -6 -1 -17 -7 -23z m1679 -4 c0 -89 -42 -158 -132 -219
-24 -15 -60 -41 -81 -57 -21 -16 -40 -27 -44 -24 -8 9 -4 184 6 210 10 25 98
76 184 107 69 25 67 25 67 -17z m-8521 1 c47 -14 48 -15 64 -74 20 -71 65
-125 169 -202 37 -28 68 -55 68 -59 0 -28 -156 2 -262 50 -72 33 -97 56 -131
126 -21 42 -67 168 -67 183 0 7 109 -9 159 -24z m216 -23 c45 -22 88 -48 97
-58 19 -21 37 -223 20 -223 -12 0 -136 91 -185 136 -53 49 -65 71 -75 138 l-9
58 36 -6 c20 -3 72 -23 116 -45z m1525 24 c-7 -9 -10 -26 -6 -42 5 -20 4 -24
-3 -13 -6 8 -13 11 -17 7 -4 -3 -1 -13 6 -22 8 -9 8 -15 2 -15 -23 0 -23 39 0
74 12 19 25 33 27 31 2 -3 -2 -11 -9 -20z m7010 21 c0 -2 -12 -39 -26 -82 -28
-88 -60 -148 -96 -182 -47 -43 -248 -108 -313 -100 -29 3 -28 5 51 65 116 88
145 129 168 235 5 23 15 30 59 42 73 21 157 33 157 22z m-8328 -143 c23 -21
54 -56 70 -77 26 -36 28 -45 28 -136 0 -53 -3 -99 -6 -103 -6 -6 -71 42 -126
93 -25 23 -26 31 -29 120 -4 162 -4 162 63 103z m7812 20 c4 -10 4 -64 0 -120
l-7 -103 -46 -37 c-25 -21 -52 -43 -59 -50 -8 -7 -22 -18 -33 -23 -16 -9 -20
-6 -25 16 -4 14 -4 62 0 106 6 69 11 87 39 125 29 40 101 103 118 103 4 0 10
-8 13 -17z m-619 -23 c-3 -5 -16 -10 -28 -9 -20 1 -20 2 3 9 14 4 26 8 28 9 2
1 0 -3 -3 -9z m48 -17 c-7 -2 -19 -2 -25 0 -7 3 -2 5 12 5 14 0 19 -2 13 -5z
m-7057 -93 c89 -56 154 -254 121 -372 -7 -27 -8 -26 -97 60 l-90 88 0 122 c0
136 3 141 66 102z m7436 -77 c0 -54 2 -111 3 -126 1 -16 -4 -34 -10 -40 -7 -7
-45 -43 -84 -81 -49 -47 -75 -66 -82 -59 -17 17 -13 172 5 223 27 72 64 128
104 155 59 40 62 37 64 -72z m-6714 49 c16 -12 35 -28 42 -37 11 -14 10 -15
-11 -7 -28 11 -89 7 -214 -15 -86 -14 -185 -25 -232 -25 -28 0 -81 40 -62 46
42 14 218 55 244 58 17 2 69 2 117 2 70 -1 92 -6 116 -22z m5989 12 c-3 -3
-12 -4 -19 -1 -8 3 -5 6 6 6 11 1 17 -2 13 -5z m293 -20 c58 -14 111 -26 118
-27 19 -1 14 -15 -10 -31 -47 -30 -358 8 -350 43 1 6 -6 11 -15 12 -31 1 70
26 112 28 22 0 87 -11 145 -25z m-5983 -66 c-2 -18 -4 -6 -4 27 0 33 2 48 4
33 2 -15 2 -42 0 -60z m3243 57 c7 -18 17 -25 35 -25 26 0 33 -18 13 -38 -9
-9 -9 -18 0 -37 11 -24 10 -25 -23 -25 -25 0 -37 -6 -46 -21 l-11 -21 -12 23
c-9 17 -20 23 -39 22 -18 -1 -27 3 -27 13 0 8 5 14 10 14 6 0 10 9 10 19 0 11
-4 23 -10 26 -5 3 -10 13 -10 21 0 12 7 14 30 9 26 -6 31 -3 40 19 12 33 28
33 40 1z m2389 -4 c-13 -11 -26 -18 -28 -15 -7 7 21 34 36 34 10 0 8 -6 -8
-19z m-7129 -57 c25 -8 81 -17 125 -21 92 -7 99 -10 179 -72 98 -76 146 -123
139 -134 -3 -5 -1 -7 4 -4 13 8 46 -27 36 -38 -5 -4 -3 -5 3 -2 7 4 17 1 23
-7 22 -26 -13 -39 -82 -32 -290 31 -480 135 -571 313 -30 59 -23 65 42 36 31
-14 77 -32 102 -39z m8490 46 c0 -26 -47 -99 -99 -153 -67 -70 -158 -127 -261
-161 -90 -29 -270 -52 -298 -37 -11 6 -23 7 -28 3 -4 -4 1 4 12 18 29 38 129
129 217 198 77 61 79 62 140 62 66 0 171 25 247 59 52 23 70 25 70 11z m-960
-65 c-7 -8 -17 -15 -22 -15 -6 0 -5 7 2 15 7 8 17 15 22 15 6 0 5 -7 -2 -15z
m-3136 -30 c14 -13 26 -35 26 -49 0 -28 -42 -66 -72 -66 -25 0 -68 44 -68 70
0 26 43 70 68 70 11 0 31 -11 46 -25z m3093 9 c-3 -3 -12 -4 -19 -1 -8 3 -5 6
6 6 11 1 17 -2 13 -5z m-694 -119 c-3 -9 -8 -14 -10 -11 -3 3 -2 9 2 15 9 16
15 13 8 -4z m-5357 -30 c27 -17 50 -38 52 -47 3 -15 -2 -15 -50 -2 -63 16
-201 19 -178 4 11 -8 8 -9 -11 -4 -15 3 -30 1 -34 -5 -3 -6 -11 -8 -17 -5 -6
4 -13 2 -17 -4 -4 -6 -23 -13 -44 -15 -20 -2 -40 -6 -43 -9 -3 -4 -19 -2 -36
3 -22 6 -36 5 -46 -3 -12 -10 -20 -6 -44 21 -16 18 -28 35 -26 36 3 3 53 16
228 56 19 4 76 7 126 6 82 -2 95 -5 140 -32z m5852 -1 c67 -15 122 -31 122
-34 0 -4 -13 -19 -30 -35 -16 -16 -30 -24 -30 -19 0 5 -27 9 -60 8 -40 -1 -63
3 -71 12 -15 19 -33 18 -25 -1 3 -8 1 -15 -3 -15 -5 0 -11 5 -13 11 -2 5 -18
11 -35 11 -22 1 -33 7 -36 20 -9 33 -157 14 -281 -37 -39 -16 62 69 109 92 44
21 60 24 140 20 50 -2 145 -17 213 -33z m-3124 -65 c14 -17 26 -38 26 -47 0
-40 -72 -142 -100 -142 -14 0 -71 150 -65 170 11 34 35 50 75 50 30 0 43 -6
64 -31z m-184 -49 c25 -25 70 -114 70 -137 0 -41 -107 -57 -170 -25 -61 30
-63 93 -4 157 28 31 76 33 104 5z m886 -65 c-1 -5 5 -21 15 -34 26 -32 24 -43
-6 -35 -28 7 -30 2 -15 -27 12 -22 -8 -27 -28 -7 -9 9 -15 9 -24 0 -19 -19
-28 -14 -28 13 0 16 -6 25 -15 25 -19 0 -19 14 0 30 9 7 14 21 13 31 -2 9 8
29 22 44 l25 26 22 -28 c13 -15 21 -32 19 -38z m-589 -5 c2 -14 10 -30 18 -36
28 -21 16 -42 -39 -68 -67 -32 -73 -32 -97 -3 -25 30 -24 36 16 79 59 63 95
73 102 28z m-4408 -1 c36 -7 79 -18 96 -25 35 -14 102 -78 111 -106 6 -21 -4
-108 -12 -108 -3 0 -40 31 -82 70 -43 38 -80 70 -84 70 -5 0 -8 -9 -8 -20 0
-23 190 -189 473 -410 l108 -84 -108 -23 c-59 -12 -119 -27 -133 -34 -54 -24
-117 -42 -161 -45 -39 -2 -52 2 -83 27 -41 34 -46 49 -15 49 25 0 240 69 254
81 18 17 -16 33 -83 39 -91 9 -172 50 -227 115 -23 27 -48 60 -54 73 -11 21
-10 22 28 22 39 0 53 12 44 37 -3 7 -27 15 -53 19 -40 5 -50 11 -59 33 -23 55
-41 231 -24 231 3 0 36 -5 72 -11z m8671 -51 c0 -74 -23 -177 -41 -188 -7 -5
-32 -11 -56 -15 -38 -5 -44 -9 -41 -28 3 -19 9 -22 45 -21 39 1 41 -1 31 -20
-51 -100 -159 -186 -238 -190 -22 -1 -42 -5 -46 -9 -4 -4 -22 -7 -41 -7 -25 0
-33 -4 -33 -18 0 -14 12 -22 43 -31 23 -7 86 -26 140 -43 97 -30 98 -30 80
-50 -36 -40 -66 -49 -130 -37 -64 11 -152 37 -168 49 -5 5 -46 16 -89 25 -44
9 -83 18 -87 20 -4 3 -19 1 -33 -5 -14 -5 -26 -8 -26 -6 0 2 39 34 88 70 48
36 110 84 137 107 28 22 95 77 150 122 128 105 225 197 225 214 0 27 -26 11
-97 -59 -81 -80 -95 -81 -97 -6 -2 86 58 142 182 172 102 25 102 25 102 -46z
m-5110 7 c7 -8 23 -15 36 -15 21 0 23 -2 12 -25 -8 -19 -8 -28 2 -40 16 -19
14 -21 -32 -28 -34 -5 -36 -4 -33 19 1 13 -2 24 -7 24 -5 0 -6 5 -3 10 3 6 -1
10 -9 10 -11 0 -16 -9 -16 -30 0 -20 -5 -30 -15 -30 -8 0 -15 7 -15 15 0 8 5
15 11 15 7 0 8 11 4 30 -5 24 -3 30 10 30 8 0 18 7 21 15 4 8 10 15 14 15 4 0
13 -7 20 -15z m-3272 -34 c80 -41 123 -113 130 -217 7 -113 1 -116 -100 -37
l-87 68 0 80 c-1 75 6 125 16 125 2 0 20 -9 41 -19z m8074 -66 c4 -44 5 -90 3
-102 -4 -18 -159 -153 -177 -153 -11 0 -20 98 -13 141 14 82 49 138 109 174
62 38 70 32 78 -60z m-4229 -5 c4 0 7 -9 7 -21 0 -15 -5 -19 -16 -15 -8 3 -13
2 -10 -3 9 -14 -119 -72 -140 -64 -67 24 -93 73 -56 105 27 24 41 25 127 11
44 -7 83 -13 88 -13z m3047 15 c-7 -9 -15 -13 -19 -10 -3 3 1 10 9 15 21 14
24 12 10 -5z m-2675 -21 c22 -34 13 -65 -26 -87 -30 -17 -33 -17 -73 3 -22 12
-57 34 -76 50 l-34 28 49 15 c28 9 71 16 96 16 40 1 49 -3 64 -25z m3091 -56
c-3 -35 -11 -137 -17 -228 -10 -163 -32 -299 -48 -310 -5 -3 -10 -13 -12 -23
-5 -25 -25 -21 -21 5 1 14 -2 19 -13 15 -8 -4 -19 1 -24 11 -9 15 -10 14 -11
-5 0 -14 -6 -23 -15 -23 -8 0 -15 6 -15 13 0 7 -15 13 -40 13 -22 1 -40 -2
-40 -7 0 -5 -4 -9 -10 -9 -20 0 -9 29 13 34 12 2 5 4 -15 2 -31 -2 -38 1 -38
16 0 10 6 18 13 18 9 0 8 3 -2 9 -7 5 -10 15 -7 22 4 8 1 6 -7 -4 -11 -13 -16
-14 -19 -5 -9 25 139 253 247 379 25 29 45 56 45 61 0 19 -22 4 -87 -61 -80
-80 -219 -276 -287 -406 -26 -49 -52 -94 -58 -100 -6 -7 -18 0 -34 18 -13 15
-24 24 -24 19 0 -5 -11 -9 -25 -9 -13 0 -22 3 -19 8 2 5 -8 12 -23 15 -16 5
-28 3 -31 -4 -2 -6 -10 -8 -18 -5 -11 4 -6 10 18 22 26 12 29 17 14 19 -10 2
-22 -1 -26 -8 -5 -8 -9 -8 -13 3 -3 8 0 20 6 26 8 8 7 11 -6 11 -20 0 -23 30
-4 49 7 8 0 7 -20 -3 -55 -28 -37 -11 52 49 47 32 126 100 177 152 51 52 118
112 149 133 63 44 266 147 293 149 4 1 6 -27 2 -61z m539 -121 l8 -88 -51 -49
c-28 -27 -68 -58 -89 -68 -21 -11 -47 -29 -57 -41 -11 -12 -24 -21 -29 -21
-12 0 -2 180 13 232 18 64 71 130 130 166 l55 33 7 -38 c3 -21 10 -78 13 -126z
m-7612 137 c64 -34 97 -67 129 -132 30 -60 33 -76 35 -169 2 -57 0 -103 -3
-103 -3 0 -23 13 -43 29 -20 15 -62 45 -94 66 -86 57 -99 85 -92 192 10 145
11 146 68 117z m3840 -62 c15 -14 27 -31 27 -36 0 -6 -4 -4 -10 4 -7 12 -12
12 -29 -4 -22 -20 -25 -18 -15 8 3 9 11 13 18 9 6 -3 2 3 -8 15 -16 18 -22 20
-34 9 -13 -10 -15 -9 -9 5 3 10 2 20 -3 23 -6 4 -10 -7 -10 -24 0 -31 15 -50
23 -29 2 8 8 9 13 4 5 -5 4 -11 -3 -13 -7 -2 -9 -11 -6 -20 4 -10 2 -14 -4
-10 -19 12 -44 77 -38 98 6 19 8 19 33 3 15 -9 39 -28 55 -42z m-195 3 c2 -26
-4 -42 -23 -61 -28 -28 -46 -24 -44 9 1 20 2 20 9 -3 8 -24 8 -23 9 8 1 17 6
32 11 32 6 0 10 5 10 11 0 6 -9 8 -22 4 -18 -5 -17 -2 7 14 40 26 41 26 43
-14z m-2868 -42 c25 -15 86 -68 136 -119 51 -51 129 -120 174 -153 45 -32 81
-62 81 -65 -1 -3 1 -5 3 -3 5 3 56 -59 56 -69 0 -4 -7 1 -15 12 -13 17 -14 17
-15 2 0 -10 -4 -18 -10 -18 -5 0 -14 8 -20 18 -11 16 -11 16 -6 -2 6 -17 2
-18 -30 -13 -31 5 -34 4 -23 -9 7 -8 20 -12 33 -9 19 6 20 5 3 -6 -14 -8 -22
-8 -30 0 -13 13 -67 15 -67 2 0 -5 8 -7 19 -4 10 3 21 0 25 -5 3 -5 -12 -12
-34 -16 -28 -4 -40 -11 -41 -24 0 -9 -3 -12 -5 -5 -3 7 -12 9 -20 6 -8 -3 -22
1 -31 8 -14 12 -15 11 -9 -11 8 -33 3 -25 -84 124 -77 130 -147 231 -222 317
-26 31 -48 60 -48 63 0 4 15 13 32 21 37 15 62 8 148 -42z m2916 5 c1 -36 0
-39 -7 -19 -8 19 -4 61 4 61 1 0 3 -19 3 -42z m-130 17 c-1 -8 -6 -18 -11 -22
-4 -4 -5 -2 -1 5 4 7 2 12 -6 12 -9 0 -9 3 2 10 19 12 19 13 16 -5z m-2870
-195 c21 -30 45 -67 54 -81 10 -14 30 -49 45 -78 24 -44 26 -56 16 -77 -6 -14
-15 -23 -20 -19 -5 3 -12 1 -15 -4 -3 -5 -15 -7 -25 -4 -10 3 -22 0 -26 -7 -5
-8 -11 -7 -23 2 -13 11 -15 10 -10 -9 5 -20 2 -22 -29 -19 -22 2 -37 -2 -40
-11 -4 -11 -8 -11 -21 -1 -9 8 -13 8 -9 2 4 -7 -1 -18 -10 -25 -12 -10 -14
-10 -9 -2 4 7 0 23 -9 35 l-17 23 7 -25 c5 -16 4 -22 -2 -15 -22 22 -46 157
-52 289 l-6 139 34 28 34 27 48 -56 c27 -31 65 -82 85 -112z m3145 156 c-10
-11 -8 -16 6 -24 15 -9 13 -10 -9 -9 -14 1 -24 7 -20 12 9 17 24 35 29 35 3 0
0 -6 -6 -14z m-347 -4 c3 -5 -1 -9 -9 -9 -8 0 -12 4 -9 9 3 4 7 8 9 8 2 0 6
-4 9 -8z m-3207 -32 c23 -10 67 -38 98 -62 l55 -43 -6 -54 c-7 -65 -13 -83
-25 -75 -5 3 -9 -5 -9 -17 0 -18 -6 -15 -35 22 -19 24 -35 49 -35 55 0 6 -10
22 -21 35 l-21 24 7 -25 c4 -14 13 -40 21 -57 7 -18 10 -33 5 -33 -4 0 -12 12
-18 28 l-10 27 -14 -30 c-8 -16 -21 -30 -29 -30 -8 0 -16 -8 -18 -17 -2 -10 1
-18 7 -18 6 0 11 -4 11 -10 0 -5 -6 -7 -13 -4 -10 4 -16 40 -20 137 -4 73 -10
143 -13 156 -6 21 -5 23 17 16 13 -4 43 -15 66 -25z m3390 -3 c0 -19 -6 -34
-13 -34 -10 0 -10 17 2 55 7 22 12 12 11 -21z m3677 -34 c-3 -38 -8 -97 -11
-133 -4 -36 -7 -71 -6 -77 0 -7 -3 -10 -8 -7 -5 3 -14 -6 -21 -20 -6 -14 -19
-26 -30 -26 -10 0 -18 -5 -18 -11 0 -6 -7 -4 -15 5 -8 8 -15 18 -15 22 0 3 7
1 15 -6 10 -9 15 -9 15 -1 0 6 -3 11 -7 11 -24 1 -33 18 -24 43 8 20 15 25 28
20 15 -6 16 -4 5 9 -8 10 -10 27 -7 45 l7 28 -21 -33 c-12 -18 -21 -35 -21
-38 0 -11 -53 -74 -62 -74 -5 0 -7 9 -3 20 5 15 3 18 -8 14 -16 -6 -27 33 -27
102 0 38 4 46 43 76 23 19 54 41 68 50 22 14 104 46 120 48 4 0 5 -30 3 -67z
m-3591 10 c5 -26 4 -26 -9 -8 -10 13 -14 15 -14 4 1 -23 27 -53 33 -37 4 9 6
7 6 -4 1 -12 -6 -16 -21 -14 -32 3 -68 24 -68 39 0 8 4 7 10 -3 5 -8 11 -12
12 -10 2 3 12 17 21 33 22 34 23 34 30 0z m2637 -283 c0 -5 -8 -10 -17 -10
-15 0 -16 2 -3 10 19 12 20 12 20 0z m7 -62 c-3 -7 -5 -2 -5 12 0 14 2 19 5
13 2 -7 2 -19 0 -25z m-56 -1 c-10 -9 -11 -8 -5 6 3 10 9 15 12 12 3 -3 0 -11
-7 -18z m989 9 c0 -2 -7 -7 -16 -10 -8 -3 -12 -2 -9 4 6 10 25 14 25 6z m60
-37 c0 -18 -18 -9 -23 12 -4 16 -3 18 9 8 8 -6 14 -15 14 -20z m-7258 -15
c-19 -15 -29 -30 -25 -37 5 -9 3 -9 -8 0 -12 10 -20 7 -42 -13 -15 -14 -31
-23 -35 -21 -4 3 -16 0 -27 -4 -18 -9 -18 -9 3 -5 20 4 24 0 21 -20 0 -4 5
-11 13 -16 8 -5 4 -6 -13 -2 -15 3 -30 1 -33 -5 -5 -7 3 -11 21 -11 27 -1 27
-1 8 -16 -11 -8 -19 -20 -18 -25 2 -5 -3 -9 -11 -9 -8 0 -16 -6 -19 -12 -3
-10 -8 -10 -18 1 -9 9 -9 11 -1 7 8 -5 12 0 12 12 0 28 -27 36 -33 10 -3 -11
-10 -17 -16 -14 -5 4 -24 -2 -42 -13 -18 -11 -36 -18 -41 -15 -4 3 -8 0 -8 -5
0 -17 -25 -13 -54 10 l-26 20 103 53 c56 29 106 51 111 48 13 -7 -26 -33 -42
-27 -8 3 -10 0 -6 -7 5 -8 2 -9 -11 -4 -15 5 -16 4 -5 -9 14 -17 35 -21 25 -5
-3 6 -3 11 2 11 4 1 19 3 33 4 14 2 36 8 50 14 24 11 24 11 -6 6 -52 -10 -37
21 25 51 31 14 61 27 66 28 6 1 23 14 39 29 16 15 32 25 35 22 3 -4 -9 -17
-27 -31z m7284 -17 c2 -13 -1 -14 -16 -4 -10 6 -16 15 -13 20 8 13 26 3 29
-16z m-5533 -26 l199 -6 -36 -46 -35 -47 117 -4 c64 -3 125 -2 134 1 9 3 30
25 47 49 28 37 36 42 71 42 22 0 40 -3 40 -8 0 -4 -11 -24 -25 -44 -30 -44
-24 -48 76 -48 68 0 70 1 87 31 32 59 47 72 81 71 46 -1 49 -8 25 -52 l-21
-38 56 -5 c31 -3 89 -2 130 1 l74 7 15 43 c11 35 18 42 40 43 15 0 35 2 45 4
21 4 21 -2 1 -50 -8 -20 -12 -40 -9 -44 13 -12 176 -14 188 -2 7 7 16 28 22
48 8 28 17 38 38 44 49 13 60 2 54 -53 l-6 -48 79 0 79 0 7 45 c7 52 7 52 54
57 l35 3 0 -50 0 -50 105 0 105 0 3 48 3 48 37 -3 c36 -3 37 -5 40 -44 l3 -41
52 -7 c29 -3 76 -6 106 -6 l54 0 -7 55 -6 55 29 0 c37 0 58 -21 67 -65 7 -41
12 -43 94 -41 71 1 70 0 54 74 -4 20 -1 22 34 22 36 0 39 -3 53 -42 l16 -43
92 -9 c107 -10 121 -4 97 42 -25 48 -21 62 17 62 40 0 47 -5 74 -55 l22 -40
135 -3 c75 -1 136 -1 136 1 0 3 -11 25 -25 49 l-25 45 51 2 50 1 22 -49 22
-49 59 -6 c32 -3 75 -6 94 -6 38 0 38 3 8 73 l-16 37 44 0 c41 0 47 -3 61 -32
34 -72 35 -72 147 -69 56 1 104 4 106 6 2 2 -8 21 -22 44 -14 22 -26 42 -26
44 0 3 70 5 155 6 85 1 169 6 187 12 18 5 36 9 39 9 27 0 328 -484 466 -748
31 -60 32 -67 27 -145 -8 -108 -18 -140 -59 -176 -41 -36 -83 -43 -225 -39
l-105 3 73 29 c39 16 72 35 72 41 0 7 -7 29 -15 48 l-15 36 38 28 c20 15 39
29 41 30 3 2 -26 35 -64 73 l-68 68 39 17 c43 18 54 30 54 62 0 13 11 30 25
39 14 9 25 25 25 35 0 20 -19 22 -32 4 -5 -6 -12 -4 -18 5 -9 13 -10 13 -10 0
-1 -8 -9 1 -20 20 -10 19 -34 50 -52 68 l-34 32 -77 -35 c-42 -20 -77 -40 -77
-45 0 -26 -32 -2 -110 81 l-85 90 -49 -27 -49 -27 -28 34 c-16 19 -29 37 -29
42 0 4 -52 7 -115 7 l-115 0 12 -27 c7 -16 23 -45 37 -66 l24 -38 56 6 c31 4
67 3 80 -3 22 -8 13 -14 -89 -63 -371 -177 -790 -390 -790 -402 0 -16 -67 -27
-169 -27 -51 0 -71 -5 -95 -23 -17 -12 -51 -33 -76 -46 -61 -32 -64 -36 -45
-55 15 -15 -61 -16 -1024 -16 l-1041 0 0 59 c0 70 -39 183 -89 255 -31 45 -92
97 -163 141 -25 16 -32 27 -30 45 2 14 4 39 5 55 l2 30 -184 3 -183 2 6 -63 7
-62 -43 -21 c-82 -40 -145 -108 -194 -210 -36 -75 -48 -92 -62 -87 -14 5 -13
2 3 -11 11 -10 14 -15 8 -11 -10 4 -12 -8 -8 -50 5 -60 -5 -70 -41 -37 -33 29
-58 102 -35 102 5 0 7 -8 4 -19 -3 -10 0 -22 6 -25 10 -6 17 21 12 48 -1 5 6
6 16 2 15 -5 15 -4 -2 9 -12 10 -21 12 -23 5 -2 -5 -8 -10 -13 -10 -6 0 -7 4
-4 10 3 5 -2 24 -11 41 -21 42 -20 87 4 135 28 54 362 602 425 697 44 65 55
76 72 70 11 -3 109 -9 218 -12z m5716 -42 c13 -5 21 -12 18 -15 -3 -3 -16 0
-29 6 -16 9 -20 9 -12 1 13 -14 77 -33 69 -21 -3 5 28 -7 69 -26 41 -18 80
-34 86 -34 15 0 -37 -43 -77 -64 -38 -19 -57 -21 -47 -3 6 9 4 9 -8 -1 -11 -8
-26 -10 -45 -5 l-28 7 30 7 30 6 -32 8 c-25 6 -33 14 -38 37 -4 18 -2 35 6 44
15 18 2 31 -43 40 -15 4 -26 11 -25 17 1 6 -9 13 -22 16 -14 4 -26 12 -29 19
-2 8 14 5 50 -9 29 -11 64 -25 77 -30z m-99 1 c0 -5 -4 -10 -10 -10 -5 0 -10
5 -10 10 0 6 5 10 10 10 6 0 10 -4 10 -10z m-7375 -10 c-3 -5 -14 -10 -23 -9
-14 0 -13 2 3 9 27 11 27 11 20 0z m7440 -20 c4 -6 -6 -7 -27 -3 -44 8 -48 13
-10 13 17 0 34 -4 37 -10z m-6792 -54 c31 -14 91 -64 116 -98 11 -15 9 -16
-26 -13 -21 2 -55 11 -76 20 -44 18 -82 72 -65 92 13 16 12 16 51 -1z m6031
-33 c-11 -32 -84 -76 -91 -55 -4 9 -12 6 -30 -8 -35 -27 -40 -19 -12 19 23 31
50 52 99 78 32 17 47 2 34 -34z m756 37 c0 -5 -4 -10 -10 -10 -5 0 -10 5 -10
10 0 6 5 10 10 10 6 0 10 -4 10 -10z m-7620 -56 c0 -2 -16 -4 -35 -4 -19 0
-35 4 -35 8 0 4 16 6 35 4 19 -2 35 -6 35 -8z m-65 -24 c-3 -5 -12 -10 -18
-10 -7 0 -6 4 3 10 19 12 23 12 15 0z m60 0 c-27 -12 -43 -12 -25 0 8 5 22 9
30 9 10 0 8 -3 -5 -9z m673 -52 c11 -18 30 -47 41 -64 l21 -31 -47 -18 c-109
-41 -198 -90 -295 -163 -142 -106 -146 -108 -274 -151 -86 -29 -111 -34 -104
-22 18 35 199 229 255 274 33 27 93 69 133 94 70 44 215 113 239 113 6 0 20
-15 31 -32z m6487 -23 c117 -57 196 -110 282 -190 64 -59 213 -225 213 -238 0
-6 -143 35 -195 57 -46 19 -165 95 -165 105 0 4 -15 15 -32 26 -18 10 -35 22
-38 26 -13 18 -162 98 -225 119 -38 13 -72 25 -74 27 -3 2 7 16 21 31 13 15
35 42 47 60 27 39 39 38 166 -23z m-6262 -102 c-7 -2 -19 -2 -25 0 -7 3 -2 5
12 5 14 0 19 -2 13 -5z m5912 -3 c0 0 20 -3 44 -6 113 -11 291 -92 409 -185
81 -64 180 -125 227 -141 l20 -6 -20 -2 c-86 -10 -243 8 -270 30 -5 5 -28 12
-50 16 -22 4 -50 13 -62 21 -12 8 -27 12 -33 8 -5 -3 -10 -1 -10 5 0 6 -5 8
-12 4 -7 -5 -8 -3 -3 6 5 8 9 26 10 42 l2 28 -24 -22 c-21 -20 -23 -20 -17 -4
5 12 4 17 -2 13 -6 -3 -17 3 -24 14 -8 10 -20 19 -27 19 -7 0 -13 4 -13 10 0
5 -8 6 -17 3 -13 -5 -15 -2 -10 11 4 10 1 19 -8 22 -8 4 -12 11 -8 18 4 7 1 7
-8 -1 -13 -11 -21 -6 -49 29 -19 23 -36 36 -38 30 -6 -20 -29 -13 -37 11 -6
19 -8 19 -12 5 -5 -19 -23 -25 -23 -7 0 5 -6 7 -12 3 -10 -6 -10 -4 0 8 11 14
10 17 -5 21 -10 3 5 4 32 2 28 -2 50 -4 50 -5z m-5963 -12 c-9 -9 -15 -9 -24
0 -9 9 -7 12 12 12 19 0 21 -3 12 -12z m-47 -8 c-6 -9 8 -14 28 -11 19 3 -5
-17 -33 -29 -32 -13 -38 -25 -17 -33 7 -3 5 -6 -5 -6 -10 -1 -18 -6 -18 -12 0
-5 5 -7 10 -4 14 9 12 -11 -2 -23 -7 -5 -27 -13 -45 -16 -18 -4 -39 -19 -49
-34 -21 -32 -99 -112 -109 -112 -4 0 -5 7 -1 15 8 22 -7 18 -22 -5 -9 -15 -9
-20 0 -20 6 0 9 -2 6 -5 -10 -11 -37 7 -31 21 8 21 1 19 -64 -14 -16 -8 -23
-8 -25 0 -3 8 -10 8 -25 -1 -12 -6 -31 -11 -42 -11 -12 0 -21 -4 -21 -8 0 -4
-34 -9 -75 -10 -41 -2 -75 -1 -75 2 0 3 31 21 69 41 38 20 78 45 90 56 12 11
26 17 33 13 6 -4 8 -3 4 4 -9 15 103 96 193 139 107 52 242 90 226 63z m-810
-25 c0 -23 -34 -33 -45 -14 -13 20 1 40 24 37 13 -2 21 -10 21 -23z m6832 -47
c-3 -7 -5 -2 -5 12 0 14 2 19 5 13 2 -7 2 -19 0 -25z m-1043 -74 l61 -67 55
29 c30 16 58 30 62 32 6 3 48 -69 48 -84 0 -3 -6 -1 -13 5 -18 14 -27 5 -28
-28 0 -14 -3 -21 -5 -15 -4 9 -178 -65 -224 -96 -33 -22 -67 -33 -97 -31 -28
2 -32 0 -26 -15 4 -12 3 -15 -5 -10 -18 11 -14 67 5 88 23 26 10 32 -26 14
-38 -20 -54 -49 -54 -96 0 -63 55 -120 116 -120 14 0 102 39 196 86 103 51
178 83 188 80 9 -4 25 1 35 11 11 10 22 16 24 13 3 -3 31 -30 63 -60 l58 -55
-66 -31 c-157 -74 -295 -141 -580 -283 l-303 -151 -37 32 c-74 65 -381 392
-374 398 5 4 143 72 307 151 165 79 354 171 420 205 67 33 125 61 130 62 6 1
37 -28 70 -64z m345 -19 c28 -74 27 -92 -5 -98 -18 -3 -29 2 -40 17 -29 41
-64 97 -64 101 0 6 61 33 77 34 6 1 21 -24 32 -54z m923 -47 c-7 -7 -12 -8
-12 -2 0 14 12 26 19 19 2 -3 -1 -11 -7 -17z m-5345 -69 c-39 -9 -90 -32 -142
-63 l-30 -18 30 26 c35 30 119 65 155 64 18 0 14 -3 -13 -9z m295 -54 c80 -53
163 -190 156 -258 -4 -31 -4 -31 -17 13 -31 105 -105 200 -198 252 -29 17 -53
34 -53 39 0 12 64 -15 112 -46z m-1625 9 c-3 -3 -12 -4 -19 -1 -8 3 -5 6 6 6
11 1 17 -2 13 -5z m1328 -238 l120 -101 150 -19 c222 -27 204 -20 193 -69 -34
-154 -183 -283 -338 -295 -118 -8 -243 41 -327 129 -70 74 -111 215 -93 322 9
61 49 159 77 189 15 16 18 15 57 -18 22 -20 95 -82 161 -138z m-633 93 c66
-14 78 -24 78 -63 0 -31 -1 -32 -45 -32 -25 -1 -45 3 -45 7 0 4 -9 5 -21 2
-16 -4 -17 -8 -7 -14 9 -6 4 -9 -15 -9 -16 0 -26 -4 -22 -9 3 -5 -4 -12 -15
-16 -11 -3 -20 -12 -20 -20 0 -7 -7 -15 -15 -19 -8 -3 -15 -1 -15 4 0 5 -19 0
-42 -10 -24 -10 -43 -23 -43 -29 0 -5 -3 -13 -7 -17 -5 -4 -8 -2 -8 6 0 10 -3
10 -16 -1 -8 -7 -13 -21 -11 -31 4 -14 2 -16 -13 -8 -20 11 -50 4 -50 -11 0
-6 9 -5 20 1 16 8 20 8 20 -3 0 -18 -44 -14 -67 5 -13 10 -12 6 3 -16 l19 -29
-26 17 c-25 16 -27 16 -32 -3 -3 -14 -11 -18 -26 -14 -27 7 -27 23 -1 23 11 0
20 4 20 9 0 15 -40 0 -50 -19 -7 -13 -6 -20 3 -24 6 -3 2 -3 -10 0 -15 3 -23
1 -23 -7 0 -7 -2 -10 -5 -7 -10 10 98 183 144 231 50 52 108 84 186 103 65 16
93 16 157 3z m5696 -4 c73 -17 128 -50 188 -111 47 -49 108 -148 110 -179 1
-11 5 -29 9 -40 6 -14 1 -12 -18 9 -16 18 -31 27 -41 23 -9 -4 -16 -1 -17 6 0
7 -4 3 -9 -8 l-9 -20 -1 20 -1 20 -9 -20 c-5 -11 -9 -14 -9 -6 -1 7 -7 11 -16
7 -10 -4 -15 1 -16 17 -1 17 -2 18 -6 4 -4 -16 -6 -16 -36 0 -18 10 -39 26
-48 36 -15 15 -17 16 -23 2 -3 -9 -2 -13 4 -10 6 3 10 1 10 -4 0 -13 -3 -13
-24 -5 -8 3 -12 12 -9 21 4 11 2 14 -5 9 -15 -9 -55 12 -47 24 3 6 -1 7 -9 4
-8 -3 -29 4 -45 15 -16 12 -34 21 -41 21 -6 0 -8 5 -4 12 4 7 3 8 -4 4 -6 -4
-33 5 -59 19 -26 14 -39 23 -27 20 13 -3 26 1 35 12 12 16 12 17 -2 6 -8 -7
-25 -10 -37 -6 -18 4 -22 12 -22 48 0 41 1 42 43 52 62 15 124 15 195 -2z
m528 -21 c7 -28 -9 -46 -36 -41 -19 3 -26 47 -8 58 23 15 37 10 44 -17z
m-6871 -14 c0 -28 -27 -39 -50 -20 -21 18 -1 52 28 48 16 -2 22 -10 22 -28z
m695 -82 c0 -5 -9 -8 -19 -8 -11 0 -22 3 -24 8 -3 4 6 7 19 7 13 0 24 -3 24
-7z m-120 -32 c0 -3 -4 -8 -10 -11 -5 -3 -10 -1 -10 4 0 6 5 11 10 11 6 0 10
-2 10 -4z m3850 -97 c22 -28 40 -54 40 -59 0 -4 -64 -36 -142 -70 -79 -34
-161 -71 -183 -81 -47 -22 -139 -39 -207 -39 -37 0 -50 4 -55 18 -3 9 -15 25
-27 34 -27 22 -23 26 102 88 68 34 109 49 122 45 13 -4 52 8 108 34 109 50
171 73 183 65 5 -3 9 0 9 5 0 19 9 12 50 -40z m-4010 7 c0 -3 -4 -8 -10 -11
-5 -3 -10 -1 -10 4 0 6 5 11 10 11 6 0 10 -2 10 -4z m6181 -89 c-10 -9 -11 -8
-5 6 3 10 9 15 12 12 3 -3 0 -11 -7 -18z m-6286 3 c3 -6 -1 -7 -9 -4 -11 4
-16 0 -16 -12 0 -9 -3 -15 -6 -11 -9 8 3 37 15 37 5 0 13 -4 16 -10z m1809
-96 c9 -8 16 -23 16 -31 0 -20 -29 -53 -46 -53 -20 0 -44 29 -44 54 0 43 44
61 74 30z m3639 -15 c23 -37 -25 -68 -52 -35 -9 11 -10 20 -1 36 13 24 38 23
53 -1z m-2265 -43 c3 -24 0 -27 -20 -24 -26 3 -37 36 -16 49 20 13 33 5 36
-25z m-275 -13 c28 -32 31 -69 8 -92 -42 -42 -111 -16 -111 41 0 56 68 89 103
51z m-813 -58 c0 -18 -5 -25 -19 -25 -11 0 -23 5 -26 10 -11 18 3 40 25 40 15
0 20 -7 20 -25z m3028 13 c21 -21 14 -57 -14 -70 -31 -14 -57 -1 -62 31 -7 42
46 69 76 39z m-920 -30 c32 -32 -8 -80 -48 -58 -34 18 -19 70 20 70 9 0 21 -5
28 -12z m-2642 -49 c8 -14 -21 -43 -35 -35 -6 4 -11 16 -11 27 0 21 34 27 46
8z m2189 -54 c0 -22 -31 -33 -47 -17 -17 17 -1 44 24 40 15 -2 23 -10 23 -23z
m-600 -109 c13 -19 14 -29 5 -45 -20 -38 -80 -24 -80 18 0 52 48 69 75 27z
m229 18 c19 -7 21 -35 4 -52 -7 -7 -17 -8 -30 -1 -21 11 -23 30 -6 47 14 14
12 14 32 6z"/>
<path d="M6803 8190 c-32 -13 -41 -57 -16 -81 18 -18 36 -19 257 -20 264 -1
266 0 269 62 2 29 -2 34 -28 40 -16 4 -60 7 -97 8 -58 1 -69 -2 -78 -19 -6
-11 -19 -20 -29 -20 -10 0 -26 9 -36 20 -16 18 -30 20 -119 19 -56 0 -111 -4
-123 -9z"/>
<path d="M4730 8150 c-9 -6 -10 -10 -3 -10 6 0 15 5 18 10 8 12 4 12 -15 0z"/>
<path d="M4770 8100 c0 -6 7 -10 15 -10 8 0 15 2 15 4 0 2 -7 6 -15 10 -8 3
-15 1 -15 -4z"/>
<path d="M4985 8090 c-3 -6 1 -7 9 -4 18 7 21 14 7 14 -6 0 -13 -4 -16 -10z"/>
<path d="M4806 8074 c-3 -9 -2 -12 5 -9 6 4 20 -1 32 -11 18 -16 18 -14 -2 9
-29 32 -27 31 -35 11z"/>
<path d="M5476 8066 c5 -14 54 -37 54 -26 0 5 -13 15 -29 23 -19 9 -28 11 -25
3z"/>
<path d="M4805 8039 c-4 -6 -5 -12 -2 -15 2 -3 7 2 10 11 7 17 1 20 -8 4z"/>
<path d="M4937 8020 c3 -11 7 -20 9 -20 2 0 4 9 4 20 0 11 -4 20 -9 20 -5 0
-7 -9 -4 -20z"/>
<path d="M5798 8004 c-21 -20 -44 -49 -53 -66 -18 -37 -18 -38 -5 -38 5 0 12
11 16 25 3 14 12 25 19 25 7 0 16 11 19 24 3 14 15 28 26 31 11 3 20 13 20 21
0 19 -1 19 -42 -22z"/>
<path d="M3882 8005 c0 -16 2 -22 5 -12 2 9 2 23 0 30 -3 6 -5 -1 -5 -18z"/>
<path d="M4875 8010 c-2 -3 5 -6 15 -7 11 -1 22 2 24 5 3 4 -4 8 -15 8 -11 0
-22 -3 -24 -6z"/>
<path d="M6538 7953 c7 -3 16 -2 19 1 4 3 -2 6 -13 5 -11 0 -14 -3 -6 -6z"/>
<path d="M4648 7853 c7 -3 16 -2 19 1 4 3 -2 6 -13 5 -11 0 -14 -3 -6 -6z"/>
<path d="M4338 7793 c7 -3 16 -2 19 1 4 3 -2 6 -13 5 -11 0 -14 -3 -6 -6z"/>
<path d="M6617 7779 c7 -7 15 -10 18 -7 3 3 -2 9 -12 12 -14 6 -15 5 -6 -5z"/>
<path d="M6765 7780 c3 -5 8 -10 11 -10 2 0 4 5 4 10 0 6 -5 10 -11 10 -5 0
-7 -4 -4 -10z"/>
<path d="M7050 7780 c161 -6 541 -2 549 6 2 2 -155 3 -350 2 -261 -2 -313 -4
-199 -8z"/>
<path d="M3240 7751 c0 -9 60 -44 66 -38 1 1 -13 12 -32 25 -19 12 -34 18 -34
13z"/>
<path d="M5265 7730 c-13 -6 -15 -9 -5 -9 8 0 22 4 30 9 18 12 2 12 -25 0z"/>
<path d="M3398 7663 c7 -3 16 -2 19 1 4 3 -2 6 -13 5 -11 0 -14 -3 -6 -6z"/>
<path d="M4566 7661 c-3 -4 6 -6 19 -3 14 2 25 6 25 8 0 8 -39 4 -44 -5z"/>
<path d="M3500 7656 c0 -2 7 -7 16 -10 8 -3 12 -2 9 4 -6 10 -25 14 -25 6z"/>
<path d="M4468 7623 c7 -3 16 -2 19 1 4 3 -2 6 -13 5 -11 0 -14 -3 -6 -6z"/>
<path d="M6380 7616 c0 -2 8 -10 18 -17 15 -13 16 -12 3 4 -13 16 -21 21 -21
13z"/>
<path d="M3546 7301 c-15 -6 -16 -9 -5 -13 8 -3 20 1 27 8 14 15 7 17 -22 5z"/>
<path d="M6568 7303 c7 -3 16 -2 19 1 4 3 -2 6 -13 5 -11 0 -14 -3 -6 -6z"/>
<path d="M2277 7293 c-6 -9 1232 -8 1241 1 3 3 -274 6 -616 6 -341 0 -623 -3
-625 -7z"/>
<path d="M6640 7291 c0 -8 629 -5 638 4 3 3 -139 5 -316 5 -177 0 -322 -4
-322 -9z"/>
<path d="M7360 7291 c0 -4 127 -8 283 -8 155 0 271 4 257 8 -36 10 -540 11
-540 0z"/>
<path d="M6290 7276 c0 -2 7 -9 15 -16 9 -7 15 -8 15 -2 0 5 -7 12 -15 16 -8
3 -15 4 -15 2z"/>
<path d="M6386 7187 c3 -10 9 -15 12 -12 3 3 0 11 -7 18 -10 9 -11 8 -5 -6z"/>
<path d="M2131 7149 c-1 -19 25 -33 34 -19 4 6 0 10 -9 10 -8 0 -17 6 -19 13
-4 7 -6 6 -6 -4z"/>
<path d="M2100 7141 c0 -6 5 -13 10 -16 6 -3 10 1 10 9 0 9 -4 16 -10 16 -5 0
-10 -4 -10 -9z"/>
<path d="M6478 7123 c7 -3 16 -2 19 1 4 3 -2 6 -13 5 -11 0 -14 -3 -6 -6z"/>
<path d="M7973 7123 c9 -2 23 -2 30 0 6 3 -1 5 -18 5 -16 0 -22 -2 -12 -5z"/>
<path d="M2520 7099 c0 -5 5 -7 10 -4 6 3 10 8 10 11 0 2 -4 4 -10 4 -5 0 -10
-5 -10 -11z"/>
<path d="M7975 7070 c3 -5 11 -10 16 -10 6 0 7 5 4 10 -3 6 -11 10 -16 10 -6
0 -7 -4 -4 -10z"/>
<path d="M7378 7063 c12 -2 32 -2 45 0 12 2 2 4 -23 4 -25 0 -35 -2 -22 -4z"/>
<path d="M2845 7026 c15 -10 34 -11 80 -5 45 7 107 4 248 -13 103 -12 187 -25
187 -29 0 -5 -17 -10 -37 -12 -21 -2 -4 -2 37 0 41 3 77 9 78 14 2 5 21 9 43
9 39 0 54 15 22 22 -10 2 4 8 30 12 31 5 53 4 61 -3 7 -6 16 -8 20 -4 4 4 4
-1 0 -12 -6 -17 -4 -17 22 5 16 14 31 26 33 28 2 1 -186 2 -420 2 -362 0 -421
-2 -404 -14z"/>
<path d="M6528 7028 c5 -7 33 -44 62 -83 29 -38 57 -70 61 -69 5 1 14 2 19 3
6 0 10 25 10 55 0 41 4 55 16 60 21 8 33 -2 15 -13 -7 -5 -9 -11 -4 -14 5 -3
14 3 21 14 10 16 10 20 -2 25 -8 3 -24 1 -35 -6 -17 -9 -26 -7 -50 11 -16 12
-34 18 -40 15 -6 -4 -11 -2 -11 3 0 6 -16 11 -36 11 -28 0 -34 -3 -26 -12z
m137 -47 c3 -6 -5 -15 -17 -22 -20 -11 -21 -10 -11 3 7 8 10 18 6 21 -3 4 -1
7 5 7 6 0 13 -4 17 -9z"/>
<path d="M6750 7025 c0 -8 6 -15 13 -15 6 0 59 -7 117 -15 145 -20 163 -19
156 3 -5 15 2 21 31 29 31 8 3 11 -139 12 -152 1 -178 -1 -178 -14z m193 -12
c-13 -2 -35 -2 -50 0 -16 2 -5 4 22 4 28 0 40 -2 28 -4z"/>
<path d="M7218 7033 c12 -2 32 -2 45 0 12 2 2 4 -23 4 -25 0 -35 -2 -22 -4z"/>
<path d="M7360 7030 c0 -5 4 -10 9 -10 6 0 13 5 16 10 3 6 -1 10 -9 10 -9 0
-16 -4 -16 -10z"/>
<path d="M7531 6998 c0 -31 3 -37 8 -24 7 18 3 66 -5 66 -2 0 -4 -19 -3 -42z"/>
<path d="M7512 7013 c-1 -7 -9 -13 -17 -13 -8 0 -15 -4 -15 -10 0 -5 8 -10 18
-10 13 0 14 -2 3 -9 -10 -6 -10 -10 -1 -16 17 -11 22 -1 17 37 -2 18 -5 27 -5
21z"/>
<path d="M7562 7000 c0 -14 2 -19 5 -12 2 6 2 18 0 25 -3 6 -5 1 -5 -13z"/>
<path d="M8117 7000 c3 -10 11 -24 18 -30 11 -10 12 -6 2 19 -13 34 -28 43
-20 11z"/>
<path d="M3543 6984 c2 -14 10 -29 18 -34 11 -7 11 -12 1 -22 -9 -9 -12 -9
-12 5 0 9 -4 17 -10 17 -5 0 -10 -4 -10 -9 0 -5 -3 -18 -6 -28 -5 -15 -4 -15
5 -3 5 8 13 11 17 7 4 -4 -1 -16 -11 -27 -10 -11 -16 -23 -12 -26 9 -9 60 74
52 86 -4 7 0 10 10 8 10 -2 20 3 22 10 3 8 -1 10 -14 5 -15 -6 -16 -4 -6 9 16
18 7 28 -24 28 -20 0 -23 -4 -20 -26z"/>
<path d="M3040 6990 c0 -5 18 -10 40 -10 22 0 40 5 40 10 0 6 -18 10 -40 10
-22 0 -40 -4 -40 -10z"/>
<path d="M7360 6968 c0 -5 18 -8 40 -8 22 0 40 4 40 8 0 4 -18 8 -40 7 -22 0
-40 -3 -40 -7z"/>
<path d="M3488 6963 c6 -2 18 -2 25 0 6 3 1 5 -13 5 -14 0 -19 -2 -12 -5z"/>
<path d="M6898 6963 c12 -2 32 -2 45 0 12 2 2 4 -23 4 -25 0 -35 -2 -22 -4z"/>
<path d="M2701 6944 c0 -11 3 -14 6 -6 3 7 2 16 -1 19 -3 4 -6 -2 -5 -13z"/>
<path d="M7450 6950 c0 -5 5 -10 10 -10 6 0 10 5 10 10 0 6 -4 10 -10 10 -5 0
-10 -4 -10 -10z"/>
<path d="M8001 6951 c-8 -5 -9 -11 -3 -15 5 -3 15 1 22 9 14 16 3 20 -19 6z"/>
<path d="M8034 6943 c-9 -14 -8 -23 4 -40 8 -13 19 -23 24 -23 5 0 2 7 -6 16
-19 19 -20 36 -4 52 7 7 8 12 2 12 -5 0 -14 -8 -20 -17z"/>
<path d="M2660 6941 c0 -6 4 -13 10 -16 6 -3 7 1 4 9 -7 18 -14 21 -14 7z"/>
<path d="M2800 6890 c0 -6 33 -10 80 -10 47 0 80 4 80 10 0 6 -33 10 -80 10
-47 0 -80 -4 -80 -10z"/>
<path d="M3120 6872 c0 -4 18 -9 40 -10 22 -2 40 1 40 5 0 4 -18 9 -40 11 -22
1 -40 -1 -40 -6z"/>
<path d="M8100 6817 c0 -7 -10 -17 -22 -22 -13 -6 -24 -19 -25 -30 -3 -18 -2
-18 9 3 11 22 23 26 63 24 11 0 14 2 8 4 -7 3 -13 12 -13 20 0 8 -4 14 -10 14
-5 0 -10 -6 -10 -13z"/>
<path d="M8120 6760 c0 -11 7 -20 15 -20 17 0 18 2 9 24 -9 23 -24 20 -24 -4z"/>
<path d="M8070 6753 c0 -4 5 -15 10 -23 8 -13 10 -13 10 2 0 9 -4 20 -10 23
-5 3 -10 3 -10 -2z"/>
<path d="M8181 6734 c0 -11 3 -14 6 -6 3 7 2 16 -1 19 -3 4 -6 -2 -5 -13z"/>
<path d="M8211 6734 c0 -11 3 -14 6 -6 3 7 2 16 -1 19 -3 4 -6 -2 -5 -13z"/>
<path d="M6990 6731 c-14 -4 -26 -15 -28 -25 -3 -14 2 -17 35 -14 30 2 38 7
38 22 0 23 -11 27 -45 17z"/>
<path d="M7080 6728 c0 -26 18 -40 51 -41 46 -3 52 27 8 42 -42 14 -59 14 -59
-1z"/>
<path d="M6791 6604 c0 -11 3 -14 6 -6 3 7 2 16 -1 19 -3 4 -6 -2 -5 -13z"/>
<path d="M7468 6483 c12 -2 30 -2 40 0 9 3 -1 5 -23 4 -22 0 -30 -2 -17 -4z"/>
<path d="M7561 6433 c0 -12 -4 -30 -7 -40 -5 -14 -4 -15 5 -7 7 6 11 24 8 40
-3 21 -4 23 -6 7z"/>
<path d="M7531 6414 c0 -11 3 -14 6 -6 3 7 2 16 -1 19 -3 4 -6 -2 -5 -13z"/>
<path d="M2620 6315 c0 -5 5 -17 10 -25 5 -8 10 -10 10 -5 0 6 -5 17 -10 25
-5 8 -10 11 -10 5z"/>
<path d="M6937 6286 c-4 -10 -7 -25 -7 -34 0 -13 2 -14 9 -3 6 9 11 10 15 2 4
-6 13 -11 19 -11 9 0 9 2 0 8 -7 4 -16 18 -21 31 -7 21 -10 22 -15 7z"/>
<path d="M2610 6278 c0 -9 5 -20 10 -23 13 -8 13 5 0 25 -8 13 -10 13 -10 -2z"/>
<path d="M6911 6254 c0 -11 3 -14 6 -6 3 7 2 16 -1 19 -3 4 -6 -2 -5 -13z"/>
<path d="M2698 6233 c6 -2 18 -2 25 0 6 3 1 5 -13 5 -14 0 -19 -2 -12 -5z"/>
<path d="M2905 6150 c-4 -6 9 -10 29 -10 20 0 36 3 36 8 0 11 -58 13 -65 2z"/>
<path d="M4080 6148 c0 -10 12 -12 40 -10 32 3 40 1 40 -12 0 -18 25 -22 36
-5 10 17 -7 26 -63 33 -40 5 -53 4 -53 -6z"/>
<path d="M6930 6145 c0 -9 5 -15 11 -13 6 2 11 8 11 13 0 5 -5 11 -11 13 -6 2
-11 -4 -11 -13z"/>
<path d="M2698 6143 c7 -3 16 -2 19 1 4 3 -2 6 -13 5 -11 0 -14 -3 -6 -6z"/>
<path d="M2818 6143 c12 -2 32 -2 45 0 12 2 2 4 -23 4 -25 0 -35 -2 -22 -4z"/>
<path d="M6951 6094 c0 -11 3 -14 6 -6 3 7 2 16 -1 19 -3 4 -6 -2 -5 -13z"/>
<path d="M4057 6076 c-4 -10 0 -14 14 -13 10 1 18 6 16 11 -5 16 -24 18 -30 2z"/>
<path d="M3995 6070 c-3 -5 -1 -10 4 -10 6 0 11 5 11 10 0 6 -2 10 -4 10 -3 0
-8 -4 -11 -10z"/>
<path d="M4021 6045 c1 -17 34 -68 44 -67 14 1 19 32 5 32 -7 0 -20 10 -31 23
-10 12 -18 18 -18 12z"/>
<path d="M6210 6010 c27 -39 34 -39 12 0 -9 16 -21 30 -25 30 -5 0 1 -13 13
-30z"/>
<path d="M3592 5989 c-1 -15 3 -31 10 -35 7 -4 10 -4 6 1 -4 4 -3 14 3 22 9
10 8 13 -2 13 -9 1 -8 4 4 11 13 8 22 7 33 -2 11 -9 18 -9 26 -1 8 8 4 12 -13
16 -49 9 -65 3 -67 -25z"/>
<path d="M5892 6003 c-16 -3 -22 -9 -18 -20 3 -8 6 -19 6 -24 0 -5 9 -4 19 3
11 6 19 20 18 30 -1 10 -1 17 -2 17 0 -1 -10 -4 -23 -6z"/>
<path d="M6931 5966 c-9 -11 -8 -22 6 -50 19 -42 24 -43 47 -17 16 17 16 22 4
39 -7 10 -21 18 -31 16 -13 -2 -17 2 -13 12 7 18 2 18 -13 0z"/>
<path d="M3630 5960 c0 -5 5 -10 11 -10 5 0 7 5 4 10 -3 6 -8 10 -11 10 -2 0
-4 -4 -4 -10z"/>
<path d="M5795 5960 c3 -5 8 -10 11 -10 2 0 4 5 4 10 0 6 -5 10 -11 10 -5 0
-7 -4 -4 -10z"/>
<path d="M3108 5953 c7 -3 16 -2 19 1 4 3 -2 6 -13 5 -11 0 -14 -3 -6 -6z"/>
<path d="M3191 5939 l-24 -20 21 -22 c19 -19 22 -19 22 -4 0 9 5 17 10 17 6 0
10 11 10 25 0 30 -7 31 -39 4z"/>
<path d="M7158 5953 c7 -3 16 -2 19 1 4 3 -2 6 -13 5 -11 0 -14 -3 -6 -6z"/>
<path d="M3145 5940 c4 -6 11 -8 16 -5 14 9 11 15 -7 15 -8 0 -12 -5 -9 -10z"/>
<path d="M7315 5840 c3 -5 14 -10 23 -10 15 0 15 2 2 10 -20 13 -33 13 -25 0z"/>
<path d="M7022 5630 c0 -19 2 -27 5 -17 2 9 2 25 0 35 -3 9 -5 1 -5 -18z"/>
<path d="M6930 5400 c0 -11 2 -20 4 -20 2 0 6 9 9 20 3 11 1 20 -4 20 -5 0 -9
-9 -9 -20z"/>
<path d="M6830 5310 c20 -13 33 -13 25 0 -3 6 -14 10 -23 10 -15 0 -15 -2 -2
-10z"/>
<path d="M6830 5239 c0 -5 5 -7 10 -4 6 3 10 8 10 11 0 2 -4 4 -10 4 -5 0 -10
-5 -10 -11z"/>
<path d="M7945 6860 c-3 -5 -1 -10 4 -10 6 0 11 5 11 10 0 6 -2 10 -4 10 -3 0
-8 -4 -11 -10z"/>
<path d="M2013 6772 c-14 -2 -20 -8 -16 -18 6 -17 24 -18 58 -2 45 21 24 31
-42 20z"/>
<path d="M4496 5943 c-6 -14 -5 -15 5 -6 7 7 10 15 7 18 -3 3 -9 -2 -12 -12z"/>
<path d="M4472 5905 c-9 -11 -10 -20 -2 -35 6 -11 15 -20 20 -20 4 0 15 -3 24
-6 9 -3 16 -1 16 4 0 6 -10 12 -22 14 -12 2 -23 9 -26 16 -2 8 3 10 15 6 15
-5 16 -4 3 5 -13 10 -13 12 0 21 13 9 13 10 0 9 -8 0 -21 -6 -28 -14z"/>
<path d="M4510 5785 c0 -8 5 -15 10 -15 6 0 10 7 10 15 0 8 -4 15 -10 15 -5 0
-10 -7 -10 -15z"/>
<path d="M2265 6750 c-3 -6 1 -7 9 -4 18 7 21 14 7 14 -6 0 -13 -4 -16 -10z"/>
<path d="M1110 6685 c-21 -22 -22 -27 -10 -50 7 -14 22 -25 32 -25 24 0 23 8
-4 30 -19 16 -21 21 -9 32 9 9 15 10 18 2 2 -6 10 -20 18 -30 22 -29 19 5 -3
39 l-18 27 -24 -25z"/>
<path d="M2097 6193 c-4 -3 -7 -13 -7 -22 1 -13 3 -13 11 2 11 19 8 33 -4 20z"/>
<path d="M8026 6225 c4 -8 11 -15 16 -15 6 0 5 6 -2 15 -7 8 -14 15 -16 15 -2
0 -1 -7 2 -15z"/>
<path d="M5059 5178 c-21 -45 -362 -714 -414 -813 -24 -44 -46 -90 -49 -102
l-7 -23 495 0 c273 0 496 3 496 6 0 3 -44 90 -97 192 -53 103 -163 317 -244
476 -81 160 -151 292 -156 293 -5 2 -16 -11 -24 -29z m25 -425 c4 -9 0 -23 -9
-32 -13 -14 -17 -14 -32 1 -13 14 -14 20 -3 32 16 21 36 20 44 -1z m123 -309
c3 -8 -2 -23 -11 -32 -15 -15 -17 -15 -32 0 -21 21 -11 48 16 48 11 0 23 -7
27 -16z m-219 -42 c3 -16 -2 -22 -16 -22 -22 0 -32 17 -24 38 7 20 37 9 40
-16z"/>
<path d="M1591 5731 c-8 -6 -9 -11 -3 -15 6 -3 14 -1 17 5 9 14 2 20 -14 10z"/>
<path d="M1621 5724 c0 -11 3 -14 6 -6 3 7 2 16 -1 19 -3 4 -6 -2 -5 -13z"/>
<path d="M8538 5733 c6 -2 18 -2 25 0 6 3 1 5 -13 5 -14 0 -19 -2 -12 -5z"/>
<path d="M3270 5409 c0 -5 5 -7 10 -4 6 3 10 8 10 11 0 2 -4 4 -10 4 -5 0 -10
-5 -10 -11z"/>
<path d="M3228 5389 c-3 -17 0 -26 9 -26 15 0 15 3 4 32 -7 18 -8 17 -13 -6z"/>
<path d="M3390 5240 c-9 -6 -10 -10 -3 -10 6 0 15 5 18 10 8 12 4 12 -15 0z"/>
<path d="M2458 5473 c7 -3 16 -2 19 1 4 3 -2 6 -13 5 -11 0 -14 -3 -6 -6z"/>
<path d="M1790 5200 c-9 -6 -10 -10 -3 -10 6 0 15 5 18 10 8 12 4 12 -15 0z"/>
<path d="M8350 5150 c0 -5 5 -10 11 -10 5 0 7 5 4 10 -3 6 -8 10 -11 10 -2 0
-4 -4 -4 -10z"/>
<path d="M8253 4904 c3 -4 0 -13 -8 -21 -13 -12 -13 -16 -1 -29 20 -20 28 -18
21 5 -3 11 -1 22 5 26 16 10 12 25 -7 25 -9 0 -14 -3 -10 -6z"/>
<path d="M8270 4870 c0 -5 5 -10 10 -10 6 0 10 5 10 10 0 6 -4 10 -10 10 -5 0
-10 -4 -10 -10z"/>
<path d="M8262 3894 c-7 -8 -8 -14 -3 -14 10 0 25 19 20 25 -2 1 -10 -3 -17
-11z"/>
<path d="M8272 3868 c-7 -7 -12 -16 -12 -20 0 -15 15 -8 28 12 13 22 3 27 -16
8z"/>
<path d="M8455 3864 c-12 -13 -19 -14 -28 -5 -6 6 -15 11 -20 11 -5 0 2 -10
17 -21 15 -12 30 -19 33 -15 4 3 3 6 -2 6 -4 0 0 9 10 20 22 24 13 27 -10 4z"/>
<path d="M8510 3800 c0 -5 5 -10 11 -10 5 0 7 5 4 10 -3 6 -8 10 -11 10 -2 0
-4 -4 -4 -10z"/>
<path d="M1643 3873 c9 -2 23 -2 30 0 6 3 -1 5 -18 5 -16 0 -22 -2 -12 -5z"/>
<path d="M1595 3860 c3 -5 -3 -13 -12 -19 -27 -15 -9 -13 21 3 25 13 25 14 6
19 -11 3 -18 1 -15 -3z"/>
<path d="M1673 3853 c9 -2 23 -2 30 0 6 3 -1 5 -18 5 -16 0 -22 -2 -12 -5z"/>
<path d="M1647 3839 c7 -7 15 -10 18 -7 3 3 -2 9 -12 12 -14 6 -15 5 -6 -5z"/>
<path d="M1664 3811 c3 -5 15 -7 26 -4 28 7 25 13 -6 13 -14 0 -23 -4 -20 -9z"/>
<path d="M1628 3793 c6 -2 18 -2 25 0 6 3 1 5 -13 5 -14 0 -19 -2 -12 -5z"/>
<path d="M7651 3894 c0 -11 3 -14 6 -6 3 7 2 16 -1 19 -3 4 -6 -2 -5 -13z"/>
<path d="M7630 3860 c0 -5 5 -10 11 -10 5 0 7 5 4 10 -3 6 -8 10 -11 10 -2 0
-4 -4 -4 -10z"/>
<path d="M7690 3814 c0 -6 7 -19 15 -30 8 -10 14 -14 14 -9 0 6 -6 19 -14 29
-8 11 -15 15 -15 10z"/>
<path d="M1705 3590 c-3 -5 -1 -10 4 -10 6 0 11 5 11 10 0 6 -2 10 -4 10 -3 0
-8 -4 -11 -10z"/>
<path d="M8779 3307 c6 -8 7 -18 3 -22 -4 -5 -1 -5 6 -1 10 6 10 11 1 22 -6 8
-14 14 -16 14 -3 0 0 -6 6 -13z"/>
<path d="M2135 3370 c-3 -5 -1 -10 4 -10 6 0 11 5 11 10 0 6 -2 10 -4 10 -3 0
-8 -4 -11 -10z"/>
<path d="M8182 2500 c0 -14 2 -19 5 -12 2 6 2 18 0 25 -3 6 -5 1 -5 -13z"/>
<path d="M2106 2525 c-9 -26 -7 -32 5 -12 6 10 9 21 6 23 -2 3 -7 -2 -11 -11z"/>
<path d="M1562 2660 c0 -14 2 -19 5 -12 2 6 2 18 0 25 -3 6 -5 1 -5 -13z"/>
<path d="M1170 2300 c0 -5 -7 -10 -17 -10 -9 0 -14 -3 -10 -6 8 -8 47 5 47 17
0 5 -4 9 -10 9 -5 0 -10 -4 -10 -10z"/>
<path d="M1155 2260 c-16 -7 -17 -9 -3 -9 9 -1 20 4 23 9 7 11 7 11 -20 0z"/>
<path d="M3746 2251 l-89 -6 -38 -55 c-21 -30 -39 -58 -39 -62 0 -5 46 -8 103
-8 l103 0 32 65 c34 70 36 76 25 73 -5 -1 -48 -4 -97 -7z"/>
<path d="M4058 2253 l-118 -4 -30 -52 c-16 -29 -30 -58 -30 -64 0 -10 33 -13
130 -13 l130 0 25 56 c25 57 31 86 18 82 -5 -1 -61 -4 -125 -5z"/>
<path d="M4290 2245 c-5 -6 -20 -35 -34 -65 l-26 -55 107 -3 c59 -1 112 -1
119 2 10 4 37 100 35 121 -2 11 -192 11 -201 0z"/>
<path d="M4654 2253 l-62 -4 -16 -58 c-9 -31 -16 -60 -16 -64 0 -4 43 -7 95
-7 93 0 95 0 95 24 0 13 3 44 6 70 6 44 6 46 -17 44 -13 -1 -52 -3 -85 -5z"/>
<path d="M5485 2250 c-2 -3 2 -33 8 -65 l12 -60 83 -3 c45 -2 82 1 82 6 0 16
-33 107 -43 120 -10 13 -134 14 -142 2z"/>
<path d="M5735 2220 c4 -19 13 -50 20 -67 l14 -33 111 0 c127 0 123 -5 74 91
l-23 47 -101 -1 -101 -2 6 -35z"/>
<path d="M6045 2252 c-1 -2 7 -31 20 -65 l22 -62 142 -3 142 -3 -31 61 c-17
34 -37 63 -44 66 -15 6 -246 11 -251 6z"/>
<path d="M6633 2251 l-223 -6 30 -62 29 -63 271 0 c148 0 270 3 270 8 -1 4
-20 34 -43 67 -50 70 -12 64 -334 56z"/>
<path d="M3259 2218 c-13 -18 -34 -48 -47 -66 l-25 -33 152 3 152 3 35 63 35
62 -140 0 -140 0 -22 -32z"/>
<path d="M4846 2219 c-3 -17 -6 -47 -6 -65 l0 -34 120 0 120 0 0 65 0 65 -114
0 -113 0 -7 -31z"/>
<path d="M5170 2216 c0 -18 3 -48 6 -65 l7 -31 113 0 c129 0 125 -3 103 86
l-11 44 -109 0 -109 0 0 -34z"/>
<path d="M3115 2013 c-25 -32 -45 -61 -45 -66 0 -4 39 -5 88 -3 48 2 112 4
142 5 l55 1 28 49 c15 27 27 54 27 60 0 7 -41 11 -125 11 l-125 0 -45 -57z"/>
<path d="M3484 2015 c-21 -30 -35 -57 -33 -59 2 -2 48 -6 102 -8 l98 -3 23 42
c49 85 50 83 -58 83 l-96 0 -36 -55z"/>
<path d="M3780 2010 l-30 -60 22 0 c260 -6 2478 -3 2478 2 0 4 -12 32 -27 63
l-27 55 -1193 0 -1193 0 -30 -60z"/>
<path d="M6300 2065 c0 -12 53 -111 64 -117 19 -13 206 -9 206 3 0 6 -14 36
-31 65 l-30 54 -105 0 c-57 0 -104 -2 -104 -5z"/>
<path d="M2532 1410 c0 -14 2 -19 5 -12 2 6 2 18 0 25 -3 6 -5 1 -5 -13z"/>
<path d="M8010 1320 c0 -5 5 -10 11 -10 5 0 7 5 4 10 -3 6 -8 10 -11 10 -2 0
-4 -4 -4 -10z"/>
</g>
</svg>
